<?xml version="1.0" encoding="utf-8"?>
<!-- Generator: Adobe Illustrator 25.2.3, SVG Export Plug-In . SVG Version: 6.00 Build 0)  -->
<svg version="1.1" id="Capa_1" xmlns="http://www.w3.org/2000/svg" xmlns:xlink="http://www.w3.org/1999/xlink" x="0px" y="0px"
	 viewBox="0 0 696.46 150" style="enable-background:new 0 0 696.46 150;" xml:space="preserve">
<style type="text/css">
	.st0{fill:none;stroke:#BB2A74;stroke-width:1.9953;stroke-miterlimit:10;}
	.st1{fill:#BB2A74;}
	.st2{fill:#0468B2;}
	.st3{fill:#333333;}
	.st4{fill:none;}
	.st5{fill:#FFFFFF;}
	.st6{font-family:'Barlow-Bold';}
	.st7{font-size:74.3616px;}
	.st8{font-size:46.3949px;}
	.st9{font-size:58.0256px;}
</style>
<path class="st0" d="M689.86,139.53H80.43V9.97H654c19.8,0,35.85,16.05,35.85,35.85V139.53z"/>
<g>
	<path class="st1" d="M247.27,8.91H14.94V109.5c0,16.83,13.77,30.59,30.59,30.59h127.39c15.31,0,29.02-9.52,34.36-23.87L247.27,8.91
		z"/>
</g>
<path class="st2" d="M-947.24-77.75c-13.49-15.99-33.19-25.16-54.05-25.16h-228.5c-34.61,0-63.99,24.89-69.85,59.18l-38.59,225.94
	c-3.56,20.83,2.2,42.02,15.8,58.14c13.49,15.99,33.19,25.16,54.05,25.16h127.95l2.33-13.54h-130.28c-16.86,0-32.79-7.42-43.7-20.35
	c-11.02-13.06-15.69-30.24-12.8-47.12l38.59-225.94c4.74-27.77,28.5-47.92,56.5-47.92h228.5c16.86,0,32.79,7.42,43.7,20.35
	c11.02,13.06,15.69,30.24,12.8,47.13l-38.59,225.94c-4.58,26.83-26.93,46.49-53.68,47.8l-7.65,13.67h4.83
	c34.62,0,63.99-24.89,69.85-59.19l38.59-225.94C-927.89-40.44-933.65-61.63-947.24-77.75z"/>
<g>
	<g>
		<g>
			<path class="st2" d="M-1129.41,63.28l36.56,0.02c0,0,20.37,1.07,30.97,25.97c0,0,11.34,26.67-12.87,57.54
				c0,0-17.63,21.06-46.33,21.79l-75.25-0.02l-4.21,0c-13.34,0-25.88,10.77-28,24.06s6.96,24.06,20.3,24.06l4.51,0l78.78-0.02
				c0,0,35.73-1.41,62.83-22.83c0,0,43.49-29.49,49.74-78.95c0,0,14.54-53.03-36.03-88.47c0,0-20.18-11.92-37.31-11.58l-41.12,0.02
				l0.28,0c-13.36,0-25.93,10.83-28.06,24.19c-2.13,13.36,6.97,24.19,20.34,24.19L-1129.41,63.28z"/>
			<path class="st2" d="M-1135.69,94.04l-36.56-0.02c0,0-20.37-1.07-30.97-25.97c0,0-11.34-26.67,12.87-57.54
				c0,0,17.63-21.06,46.33-21.79l75.25,0.02l4.21,0c13.34,0,25.88-10.77,28-24.06s-6.96-24.06-20.3-24.06l-4.51,0l-78.78,0.02
				c0,0-35.73,1.41-62.83,22.83c0,0-43.49,29.49-49.74,78.95c0,0-14.54,53.03,36.03,88.47c0,0,20.18,11.92,37.31,11.58l41.12-0.02
				l-0.28,0c13.36,0,25.93-10.83,28.06-24.19c2.13-13.36-6.97-24.19-20.34-24.19L-1135.69,94.04z"/>
		</g>
	</g>
</g>
<g>
	<path class="st2" d="M-1044.08,252h-27.82l-15.06,29.82h-1.91l-5.64-37.05h-14.27l8.98,47.69c0.62,3.29,3.5,5.68,6.85,5.68h10.81
		l17.61-32.7h12.85L-1044.08,252z"/>
	<path class="st2" d="M-1095.58,237.62l-1.62-11.98h-1.74h-2.45h-40.39c-1.92,0-3.56,1.38-3.89,3.26l-1.54,8.72h17.39l-9.83,55.76
		c-0.44,2.48,1.47,4.76,3.99,4.76h9.46l10.67-60.52H-1095.58l-0.01-0.02L-1095.58,237.62z"/>
</g>
<path class="st3" d="M-406.41-82.77c-13.49-15.99-33.19-25.16-54.05-25.16h-228.5c-34.61,0-63.99,24.89-69.85,59.18L-797.4,177.2
	c-3.56,20.83,2.2,42.02,15.8,58.14c13.49,15.99,33.19,25.16,54.05,25.16h127.95l2.33-13.54h-130.28c-16.86,0-32.79-7.42-43.7-20.35
	c-11.02-13.06-15.69-30.24-12.8-47.12l38.59-225.94c4.74-27.77,28.5-47.92,56.5-47.92h228.5c16.86,0,32.79,7.42,43.7,20.35
	c11.02,13.06,15.69,30.24,12.8,47.13l-38.59,225.94c-4.58,26.83-26.93,46.49-53.68,47.8l-7.65,13.67h4.83
	c34.62,0,63.99-24.89,69.85-59.19l38.59-225.94C-387.05-45.46-392.81-66.65-406.41-82.77z"/>
<g>
	<g>
		<g>
			<path class="st3" d="M-588.57,58.26l36.56,0.02c0,0,20.37,1.07,30.97,25.97c0,0,11.34,26.67-12.87,57.54
				c0,0-17.63,21.06-46.33,21.79l-75.25-0.02l-4.21,0c-13.34,0-25.88,10.77-28,24.06s6.96,24.06,20.3,24.06l4.51,0l78.78-0.02
				c0,0,35.73-1.41,62.83-22.83c0,0,43.49-29.49,49.74-78.95c0,0,14.54-53.03-36.03-88.47c0,0-20.18-11.92-37.31-11.58l-41.12,0.02
				l0.28,0c-13.36,0-25.93,10.83-28.06,24.19c-2.13,13.36,6.97,24.19,20.34,24.19L-588.57,58.26z"/>
			<path class="st3" d="M-594.85,89.02l-36.56-0.02c0,0-20.37-1.07-30.97-25.97c0,0-11.34-26.67,12.87-57.54
				c0,0,17.63-21.06,46.33-21.79l75.25,0.02l4.21,0c13.34,0,25.88-10.77,28-24.06c2.13-13.29-6.96-24.06-20.3-24.06l-4.51,0
				l-78.78,0.02c0,0-35.73,1.41-62.83,22.83c0,0-43.49,29.49-49.74,78.95c0,0-14.54,53.03,36.03,88.47c0,0,20.18,11.92,37.31,11.58
				l41.12-0.02l-0.28,0c13.36,0,25.93-10.83,28.06-24.19c2.13-13.36-6.97-24.19-20.34-24.19L-594.85,89.02z"/>
		</g>
	</g>
</g>
<g>
	<path class="st3" d="M-503.24,246.98h-27.82l-15.06,29.82h-1.91l-5.64-37.05h-14.27l8.98,47.69c0.62,3.29,3.5,5.68,6.85,5.68h10.81
		l17.61-32.7h12.85L-503.24,246.98z"/>
	<path class="st3" d="M-554.74,232.6l-1.62-11.98h-1.74h-2.45h-40.39c-1.92,0-3.56,1.38-3.89,3.26l-1.54,8.72h17.39l-9.83,55.76
		c-0.44,2.48,1.47,4.76,3.99,4.76h9.46l10.67-60.52H-554.74l-0.01-0.02L-554.74,232.6z"/>
</g>
<g>
	<path class="st2" d="M-2992.83,596.93c1.23-4.81,4.95-7.72,8.38-10.78c18.43-16.45,39.71-27.41,64.06-31.7
		c42.25-7.45,79.99,2.56,112.85,30.34c2.13,1.8,4.16,3.74,6.16,5.69c4.91,4.76,5.18,11.62,0.71,16.37c-4.3,4.57-11.4,4.78-16.25,0.2
		c-6.26-5.91-12.84-11.37-20.19-15.89c-13.9-8.55-28.94-13.8-45.16-15.62c-24.46-2.75-47.4,1.95-68.74,14.23
		c-7.97,4.59-15.19,10.19-21.75,16.64c-3.28,3.22-7.09,4.69-11.64,3.45c-3.88-1.06-6.5-3.57-7.83-7.4
		c-0.16-0.46-0.41-0.89-0.61-1.34C-2992.83,599.73-2992.83,598.33-2992.83,596.93z"/>
	<path class="st2" d="M-2894.9,613.09c-18.74,0.28-34.96,6.32-48.74,18.72c-1.69,1.52-3.4,3.13-5.36,4.24
		c-4.72,2.67-10.63,1.33-14.07-2.92c-3.44-4.24-3.51-10.3,0.19-14.35c5.7-6.24,12.43-11.25,19.71-15.49
		c17.99-10.48,37.42-14.55,58.06-12.39c22,2.3,40.92,11.39,56.73,26.88c4.71,4.62,4.89,11.43,0.59,16.1
		c-4.15,4.5-11.09,4.87-15.95,0.59c-4.97-4.38-9.96-8.67-15.77-11.93c-9.79-5.5-20.26-8.68-31.49-9.23
		C-2892.4,613.24-2893.79,613.15-2894.9,613.09z"/>
	<path class="st2" d="M-2895.06,626.8c15.75,0.19,29.53,5.78,40.98,16.94c4.56,4.45,4.66,11.31,0.38,15.96
		c-4,4.35-10.9,4.87-15.51,0.86c-4.45-3.87-9.03-7.43-14.76-9.18c-12.85-3.91-24.47-1.63-34.73,7.08c-2.39,2.03-4.64,4.14-7.95,4.54
		c-5.22,0.64-9.79-1.78-12.03-6.47c-2.07-4.33-1.03-9.62,2.63-13.11C-2924.65,632.56-2911.04,627.03-2895.06,626.8z"/>
	<path class="st2" d="M-2912.1,683.75c-0.02-9.2,7.63-16.86,16.87-16.89c9.21-0.03,16.89,7.62,16.9,16.85
		c0.01,9.21-7.61,16.85-16.87,16.89C-2904.37,700.65-2912.07,692.97-2912.1,683.75z"/>
</g>
<g>
	<path class="st2" d="M-2831.72,897.54c3.64-3.37,8.35-3.79,12.89-4.5c24.41-3.81,48.23-1.45,71.01,8.16
		c39.52,16.68,65.79,45.58,78.3,86.75c0.81,2.67,1.46,5.4,2.08,8.13c1.53,6.66-1.96,12.58-8.29,14.13
		c-6.09,1.5-12.17-2.17-13.75-8.66c-2.05-8.36-4.61-16.52-8.33-24.3c-7.03-14.72-16.81-27.3-29.45-37.64
		c-19.05-15.59-40.86-24.1-65.45-25.37c-9.18-0.47-18.29,0.31-27.3,2.16c-4.5,0.92-8.5,0.09-11.65-3.42
		c-2.68-2.99-3.52-6.53-2.56-10.46c0.12-0.47,0.14-0.97,0.21-1.46C-2833.24,899.89-2832.48,898.72-2831.72,897.54z"/>
	<path class="st2" d="M-2758.25,964.29c-15.89-9.94-32.79-13.67-51.09-10.75c-2.25,0.36-4.55,0.78-6.8,0.65
		c-5.41-0.32-9.65-4.65-10.23-10.09c-0.58-5.43,2.64-10.56,7.95-11.95c8.17-2.14,16.54-2.7,24.96-2.3
		c20.8,0.97,39.32,8.1,55.48,21.11c17.23,13.88,28.18,31.79,33.04,53.37c1.45,6.43-2.1,12.26-8.24,13.84
		c-5.93,1.53-11.96-1.94-13.71-8.16c-1.79-6.37-3.66-12.69-6.76-18.58c-5.24-9.93-12.3-18.28-21.43-24.85
		C-2756.23,965.77-2757.36,964.94-2758.25,964.29z"/>
	<path class="st2" d="M-2765.83,975.72c13.12,8.71,21.66,20.88,25.21,36.48c1.42,6.21-2.23,12.03-8.35,13.61
		c-5.72,1.48-11.8-1.83-13.49-7.69c-1.64-5.67-3.55-11.15-7.41-15.72c-8.67-10.26-19.66-14.65-33.01-12.91
		c-3.1,0.41-6.14,0.95-9.14-0.5c-4.73-2.3-7.26-6.82-6.59-11.96c0.62-4.76,4.36-8.64,9.32-9.58
		C-2793.8,964.48-2779.38,967.23-2765.83,975.72z"/>
	<path class="st2" d="M-2811.06,1014.29c4.98-7.74,15.56-10.01,23.34-5.02c7.75,4.98,10.05,15.57,5.05,23.33
		c-4.99,7.75-15.54,10.02-23.34,5.03C-2813.74,1032.68-2816.04,1022.04-2811.06,1014.29z"/>
</g>
<g>
	<path class="st2" d="M-2820,1450.66c3.64-3.37,8.35-3.79,12.89-4.5c24.41-3.81,48.23-1.45,71.01,8.16
		c39.52,16.68,65.79,45.58,78.3,86.75c0.81,2.67,1.46,5.4,2.08,8.13c1.53,6.66-1.96,12.58-8.29,14.13
		c-6.09,1.5-12.17-2.17-13.75-8.66c-2.04-8.36-4.61-16.52-8.33-24.3c-7.03-14.72-16.81-27.3-29.45-37.64
		c-19.05-15.59-40.86-24.1-65.45-25.37c-9.18-0.47-18.29,0.31-27.3,2.16c-4.5,0.92-8.5,0.09-11.65-3.42
		c-2.68-2.99-3.52-6.53-2.56-10.46c0.12-0.47,0.14-0.97,0.21-1.46C-2821.52,1453.01-2820.76,1451.83-2820,1450.66z"/>
	<path class="st2" d="M-2746.53,1517.41c-15.89-9.94-32.79-13.67-51.09-10.75c-2.25,0.36-4.55,0.78-6.8,0.65
		c-5.41-0.32-9.65-4.65-10.23-10.09c-0.58-5.43,2.64-10.56,7.95-11.95c8.17-2.14,16.54-2.7,24.96-2.3
		c20.8,0.97,39.32,8.1,55.48,21.11c17.23,13.88,28.18,31.79,33.04,53.37c1.45,6.43-2.1,12.26-8.24,13.84
		c-5.93,1.53-11.96-1.94-13.71-8.16c-1.79-6.37-3.66-12.69-6.76-18.58c-5.24-9.93-12.3-18.28-21.43-24.85
		C-2744.51,1518.88-2745.64,1518.06-2746.53,1517.41z"/>
	<path class="st2" d="M-2754.11,1528.83c13.12,8.71,21.66,20.88,25.21,36.48c1.42,6.21-2.23,12.03-8.35,13.61
		c-5.72,1.48-11.8-1.83-13.49-7.69c-1.64-5.67-3.55-11.15-7.41-15.72c-8.67-10.26-19.66-14.65-33.01-12.91
		c-3.1,0.41-6.14,0.95-9.14-0.5c-4.73-2.3-7.26-6.82-6.59-11.96c0.62-4.76,4.36-8.64,9.32-9.58
		C-2782.08,1517.6-2767.66,1520.35-2754.11,1528.83z"/>
	<path class="st2" d="M-2799.34,1567.41c4.98-7.74,15.56-10.01,23.34-5.02c7.75,4.98,10.05,15.57,5.05,23.33
		c-4.99,7.75-15.54,10.02-23.34,5.03C-2802.02,1585.8-2804.32,1575.16-2799.34,1567.41z"/>
</g>
<g>
	<path class="st2" d="M-3081.22,756.71c-0.66-0.29-1.31-0.61-1.99-0.87c-5.31-2-8.48-7.12-7.63-12.32c0.88-5.4,5.17-9.31,10.93-9.43
		c9.48-0.18,18.96-0.08,28.44-0.09c1.22,0,2.44,0,3.92,0c0-54.97,0-109.54,0-164.17c-4.12-0.25-8.27-0.04-12.21-0.83
		c-14.65-2.94-24.46-11.63-28.16-26.16c-3.7-14.51,0.63-26.95,12.06-36.56c17.66-14.85,35.54-29.44,53.33-44.14
		c31.06-25.66,62.14-51.29,93.16-77c18.31-15.18,41.69-15.24,59.84-0.03c49.05,41.09,98.11,82.17,147.16,123.26
		c11.7,9.8,15.93,25.58,10.59,39.59c-5.31,13.93-18.7,22.8-33.88,22.42c-1.72-0.04-3.44-0.17-5.43-0.27c0,54.57,0,109,0,163.9
		c4.37,0,8.58,0,12.8,0c5.36,0,10.74,0.25,16.09-0.06c6.9-0.41,11.84,2.02,14.52,8.55c0,1.75,0,3.49,0,5.24
		c-1.69,4.68-5.13,7.46-9.73,8.98C-2838.69,756.71-2959.96,756.71-3081.22,756.71z M-2899.66,734.01c40.54,0,81.09-0.05,121.63,0.08
		c3.52,0.01,4.32-1.04,4.31-4.4c-0.1-56.39-0.09-112.77-0.01-169.16c0-2.66-0.87-4.27-2.93-5.89
		c-39.95-31.31-79.85-62.68-119.69-94.13c-2.34-1.84-3.73-1.71-5.99,0.07c-39.85,31.44-79.76,62.8-119.71,94.11
		c-2.09,1.64-2.87,3.29-2.86,5.92c0.07,56.39,0.09,112.77-0.02,169.16c-0.01,3.51,1.03,4.33,4.4,4.32
		C-2980.25,733.97-2939.96,734.01-2899.66,734.01z M-3052.88,548.08c3.09-1.66,6.51-2.91,9.24-5.05
		c45.36-35.5,90.64-71.11,135.94-106.71c5.95-4.67,10.99-4.62,16.91,0.04c45.85,36.08,91.72,72.15,137.6,108.21
		c6.41,5.03,14,4.42,18.58-1.38c4.44-5.61,3.31-12.98-2.85-18.15c-48.75-40.84-97.49-81.69-146.26-122.51
		c-10.3-8.62-21.16-8.55-31.47-0.02c-38.43,31.79-76.88,63.56-115.33,95.34c-10.38,8.58-20.79,17.13-31.13,25.75
		c-4.74,3.95-6.24,9.69-4.18,15.15C-3063.92,543.88-3058.96,547.23-3052.88,548.08z"/>
</g>
<g>
	<path class="st3" d="M-2478.79,598.6c1.23-4.81,4.95-7.72,8.38-10.78c18.43-16.45,39.71-27.41,64.06-31.7
		c42.25-7.45,79.99,2.56,112.85,30.34c2.13,1.8,4.16,3.74,6.16,5.69c4.91,4.76,5.18,11.62,0.71,16.37c-4.3,4.57-11.4,4.78-16.25,0.2
		c-6.26-5.91-12.84-11.37-20.19-15.89c-13.9-8.55-28.94-13.8-45.16-15.62c-24.46-2.75-47.4,1.95-68.74,14.23
		c-7.97,4.59-15.19,10.19-21.75,16.64c-3.28,3.22-7.09,4.69-11.64,3.45c-3.88-1.06-6.5-3.57-7.83-7.4
		c-0.16-0.46-0.41-0.89-0.61-1.34C-2478.79,601.4-2478.79,600-2478.79,598.6z"/>
	<path class="st3" d="M-2380.85,614.77c-18.74,0.28-34.96,6.32-48.74,18.72c-1.69,1.52-3.4,3.13-5.36,4.24
		c-4.72,2.67-10.63,1.33-14.07-2.92c-3.44-4.24-3.51-10.3,0.19-14.35c5.7-6.24,12.43-11.25,19.71-15.49
		c17.99-10.48,37.42-14.55,58.06-12.39c22,2.3,40.92,11.39,56.73,26.88c4.71,4.62,4.89,11.43,0.59,16.1
		c-4.15,4.5-11.09,4.87-15.95,0.59c-4.97-4.38-9.96-8.67-15.77-11.93c-9.79-5.5-20.26-8.68-31.49-9.23
		C-2378.35,614.91-2379.75,614.83-2380.85,614.77z"/>
	<path class="st3" d="M-2381.01,628.48c15.75,0.19,29.53,5.78,40.98,16.94c4.56,4.45,4.66,11.31,0.38,15.96
		c-4,4.35-10.9,4.87-15.51,0.86c-4.45-3.87-9.03-7.43-14.76-9.18c-12.85-3.91-24.47-1.63-34.73,7.08c-2.39,2.03-4.64,4.14-7.95,4.54
		c-5.22,0.64-9.79-1.78-12.03-6.47c-2.07-4.33-1.03-9.62,2.63-13.11C-2410.6,634.23-2396.99,628.71-2381.01,628.48z"/>
	<path class="st3" d="M-2398.05,685.43c-0.02-9.2,7.63-16.86,16.87-16.89c9.21-0.03,16.89,7.62,16.9,16.85
		c0.01,9.21-7.61,16.85-16.87,16.89C-2390.32,702.33-2398.03,694.64-2398.05,685.43z"/>
</g>
<g>
	<path class="st3" d="M-2567.18,758.39c-0.66-0.29-1.31-0.61-1.99-0.87c-5.31-2-8.48-7.12-7.63-12.32c0.88-5.4,5.17-9.31,10.93-9.43
		c9.48-0.18,18.96-0.08,28.44-0.09c1.22,0,2.44,0,3.92,0c0-54.97,0-109.54,0-164.17c-4.12-0.25-8.27-0.04-12.21-0.83
		c-14.65-2.94-24.46-11.63-28.16-26.16c-3.7-14.51,0.63-26.95,12.06-36.56c17.66-14.85,35.54-29.44,53.33-44.14
		c31.06-25.66,62.14-51.29,93.16-77c18.31-15.18,41.69-15.24,59.84-0.03c49.05,41.09,98.11,82.17,147.16,123.26
		c11.7,9.8,15.93,25.58,10.59,39.59c-5.31,13.93-18.7,22.8-33.88,22.42c-1.72-0.04-3.44-0.17-5.43-0.27c0,54.57,0,109,0,163.9
		c4.37,0,8.58,0,12.8,0c5.36,0,10.74,0.25,16.09-0.06c6.9-0.41,11.84,2.02,14.52,8.55c0,1.75,0,3.49,0,5.24
		c-1.69,4.68-5.13,7.46-9.73,8.98C-2324.65,758.39-2445.91,758.39-2567.18,758.39z M-2385.62,735.68c40.54,0,81.09-0.05,121.63,0.08
		c3.52,0.01,4.32-1.04,4.31-4.4c-0.1-56.39-0.09-112.77-0.01-169.16c0-2.66-0.87-4.27-2.93-5.89
		c-39.95-31.31-79.85-62.68-119.69-94.13c-2.34-1.84-3.73-1.71-5.99,0.07c-39.85,31.44-79.76,62.8-119.71,94.11
		c-2.09,1.64-2.87,3.29-2.86,5.92c0.07,56.39,0.09,112.77-0.02,169.16c-0.01,3.51,1.03,4.33,4.4,4.32
		C-2466.2,735.64-2425.91,735.68-2385.62,735.68z M-2538.83,549.75c3.09-1.66,6.51-2.91,9.24-5.05
		c45.36-35.5,90.64-71.11,135.94-106.71c5.95-4.67,10.99-4.62,16.9,0.04c45.85,36.08,91.72,72.15,137.6,108.21
		c6.41,5.03,14,4.42,18.58-1.38c4.44-5.61,3.31-12.98-2.85-18.15c-48.75-40.84-97.49-81.69-146.26-122.51
		c-10.3-8.62-21.16-8.55-31.47-0.02c-38.43,31.79-76.88,63.56-115.33,95.34c-10.38,8.58-20.79,17.13-31.13,25.75
		c-4.74,3.95-6.24,9.69-4.18,15.15C-2549.88,545.56-2544.91,548.91-2538.83,549.75z"/>
</g>
<g>
	<path class="st4" d="M-3075.75,1216.91c0.84,7.42,4.85,12.66,11.96,15.04c2.6,0.87,5.55,0.97,8.34,0.97
		c105.53,0.05,211.06,0.04,316.59,0.04c1.28,0,2.57,0,3.85-0.07c7.39-0.4,14.06-5.36,15.74-12.55c0.99-4.25,0.81-8.78,1.18-13.4
		c-119.59,0-238.42,0-357.71,0C-3075.81,1210.52-3076.1,1213.75-3075.75,1216.91z"/>
	<path class="st4" d="M-2829.32,1251.53c-45.19-0.1-90.37-0.07-135.56-0.14c-2.26,0-3.44,0.79-4.51,2.66
		c-6.02,10.59-12.14,21.13-18.22,31.68c-0.93,1.62-1.84,3.26-2.98,5.29c62.52,0,124.42,0,186.63,0c-0.25-0.7-0.34-1.18-0.57-1.58
		c-6.91-12-13.77-24.03-20.84-35.94C-2826.01,1252.42-2827.97,1251.54-2829.32,1251.53z"/>
	<path class="st2" d="M-2718.37,1183.97c0,1.26,0,2.52,0,4.13c-119.38,0-238.22,0-357.5,0c0-1.53,0-2.9,0-4.28
		c0-71,0-141.99,0-212.99c0-12.66,7.15-19.87,19.75-19.87c69.74,0,139.49,0,209.23,0v-18.49c-69.71,0-139.43,0-209.14,0
		c-18.45,0-32.71,10.36-37.02,27.07c-0.85,3.31-1.26,6.83-1.26,10.26c-0.07,81.54-0.08,163.07-0.03,244.61
		c0.01,21.14,15.44,36.77,36.62,36.97c21.18,0.2,42.37,0.05,63.56,0.05c1.38,0,2.76,0,4.85,0c-0.91,1.69-1.52,2.89-2.19,4.05
		c-7.43,12.89-14.89,25.76-22.31,38.66c-4.87,8.47-0.8,15.55,8.96,15.56c71.78,0.02,143.56-0.08,215.33,0.11
		c10.01,0.03,13.67-8.71,9.11-15.96c-7.85-12.48-14.87-25.47-22.23-38.26c-0.68-1.18-1.28-2.4-2.21-4.16c1.94,0,3.3,0,4.66,0
		c20.16,0,40.32,0,60.48,0c21.63,0,33.96-9.53,39.37-30.38c0.06-0.22,0.31-0.39,0.47-0.58c0-59.67,0-119.33,0-179h-18.49
		C-2718.37,1088.98-2718.37,1136.48-2718.37,1183.97z M-2804.53,1289.45c0.23,0.4,0.32,0.88,0.57,1.58c-62.21,0-124.11,0-186.63,0
		c1.15-2.03,2.05-3.67,2.98-5.29c6.08-10.56,12.2-21.09,18.22-31.68c1.06-1.87,2.25-2.66,4.51-2.66
		c45.19,0.07,90.37,0.04,135.56,0.14c1.35,0,3.31,0.89,3.95,1.97C-2818.3,1265.41-2811.44,1277.44-2804.53,1289.45z
		 M-2719.27,1220.33c-1.68,7.19-8.35,12.16-15.74,12.55c-1.28,0.07-2.57,0.07-3.85,0.07c-105.53,0-211.06,0.01-316.59-0.04
		c-2.79,0-5.74-0.1-8.34-0.97c-7.11-2.38-11.12-7.62-11.96-15.04c-0.36-3.16-0.06-6.39-0.06-9.97c119.3,0,238.12,0,357.71,0
		C-2718.46,1211.56-2718.28,1216.08-2719.27,1220.33z"/>
</g>
<g>
	<path class="st3" d="M-2309.3,902.01c3.64-3.37,8.35-3.79,12.89-4.5c24.41-3.81,48.23-1.45,71.01,8.16
		c39.52,16.68,65.79,45.58,78.3,86.75c0.81,2.67,1.46,5.4,2.08,8.13c1.53,6.66-1.96,12.58-8.29,14.13
		c-6.09,1.5-12.17-2.17-13.75-8.66c-2.04-8.36-4.61-16.52-8.33-24.3c-7.03-14.72-16.81-27.3-29.44-37.64
		c-19.05-15.59-40.86-24.1-65.45-25.37c-9.18-0.47-18.29,0.31-27.3,2.16c-4.5,0.92-8.5,0.09-11.65-3.42
		c-2.68-2.99-3.52-6.53-2.56-10.46c0.12-0.47,0.14-0.97,0.21-1.46C-2310.82,904.36-2310.06,903.18-2309.3,902.01z"/>
	<path class="st3" d="M-2235.84,968.76c-15.89-9.94-32.79-13.67-51.09-10.75c-2.25,0.36-4.55,0.78-6.8,0.65
		c-5.41-0.32-9.65-4.65-10.23-10.09c-0.58-5.43,2.64-10.56,7.95-11.95c8.17-2.14,16.54-2.7,24.96-2.3
		c20.8,0.97,39.32,8.1,55.48,21.11c17.23,13.88,28.18,31.79,33.04,53.37c1.45,6.43-2.1,12.26-8.24,13.84
		c-5.93,1.53-11.96-1.94-13.71-8.16c-1.79-6.37-3.66-12.69-6.76-18.58c-5.24-9.93-12.3-18.28-21.43-24.85
		C-2233.81,970.23-2234.94,969.41-2235.84,968.76z"/>
	<path class="st3" d="M-2243.42,980.18c13.12,8.71,21.66,20.88,25.21,36.48c1.42,6.21-2.23,12.03-8.35,13.61
		c-5.72,1.48-11.8-1.83-13.49-7.69c-1.64-5.67-3.55-11.15-7.41-15.72c-8.67-10.26-19.66-14.65-33.01-12.91
		c-3.1,0.41-6.14,0.95-9.14-0.5c-4.73-2.3-7.26-6.82-6.59-11.96c0.62-4.76,4.36-8.64,9.32-9.58
		C-2271.39,968.95-2256.96,971.7-2243.42,980.18z"/>
	<path class="st3" d="M-2288.64,1018.76c4.98-7.74,15.56-10.01,23.34-5.02c7.75,4.98,10.05,15.57,5.05,23.33
		c-4.99,7.75-15.54,10.02-23.34,5.03C-2291.33,1037.15-2293.63,1026.51-2288.64,1018.76z"/>
</g>
<g>
	<path class="st3" d="M-2195.95,1188.44c0,1.26,0,2.52,0,4.13c-119.38,0-238.21,0-357.5,0c0-1.53,0-2.9,0-4.28
		c0-71,0-141.99,0-212.99c0-12.66,7.15-19.87,19.75-19.87c69.74,0,139.49,0,209.23,0v-18.49c-69.71,0-139.43,0-209.14,0
		c-18.45,0-32.71,10.36-37.02,27.07c-0.85,3.31-1.26,6.83-1.26,10.26c-0.07,81.54-0.08,163.07-0.03,244.61
		c0.01,21.14,15.44,36.77,36.62,36.97c21.18,0.2,42.37,0.05,63.56,0.05c1.38,0,2.76,0,4.85,0c-0.91,1.69-1.52,2.89-2.19,4.05
		c-7.43,12.89-14.89,25.76-22.31,38.66c-4.87,8.47-0.8,15.55,8.96,15.56c71.78,0.02,143.56-0.08,215.33,0.11
		c10.01,0.03,13.67-8.71,9.11-15.96c-7.85-12.48-14.87-25.47-22.23-38.26c-0.68-1.18-1.28-2.4-2.21-4.16c1.94,0,3.3,0,4.66,0
		c20.16,0,40.32,0,60.48,0c21.63,0,33.96-9.53,39.37-30.38c0.06-0.22,0.31-0.39,0.47-0.58c0-59.67,0-119.33,0-179h-18.49
		C-2195.96,1093.45-2195.95,1140.94-2195.95,1188.44z M-2282.11,1293.91c0.23,0.4,0.32,0.88,0.57,1.58c-62.21,0-124.11,0-186.63,0
		c1.15-2.03,2.05-3.67,2.98-5.29c6.08-10.56,12.2-21.09,18.22-31.68c1.06-1.87,2.25-2.66,4.51-2.66
		c45.19,0.07,90.37,0.04,135.56,0.14c1.35,0,3.31,0.89,3.95,1.97C-2295.88,1269.88-2289.02,1281.91-2282.11,1293.91z
		 M-2196.85,1224.8c-1.68,7.19-8.35,12.16-15.74,12.55c-1.28,0.07-2.57,0.07-3.85,0.07c-105.53,0-211.06,0.01-316.59-0.04
		c-2.79,0-5.74-0.1-8.34-0.97c-7.11-2.38-11.12-7.62-11.96-15.04c-0.36-3.16-0.06-6.39-0.06-9.97c119.3,0,238.12,0,357.71,0
		C-2196.04,1216.02-2195.86,1220.55-2196.85,1224.8z"/>
</g>
<g>
	<path class="st2" d="M-2716.61,1715.8c0,9.1-2.6,11.74-11.6,11.74c-111.82,0-223.64,0-335.46,0c-9.04,0-11.63-2.62-11.63-11.7
		c0-64.98,0-129.97,0-194.95c0-8.85,2.62-11.51,11.39-11.52c56.04-0.01,112.09,0,168.13,0c23.99,0,47.99,0,71.98,0v-25.62
		c-84.49,0-168.98-0.01-253.48,0.01c-15.04,0-23.64,8.59-23.64,23.52c-0.01,74.33-0.01,148.66,0,222.98
		c0,13.9,8.9,22.86,22.68,22.86c121.57,0.01,243.14,0.01,364.7-0.02c1.98,0,4.02-0.1,5.95-0.54c9.17-2.13,14.02-8.56,16.62-17.11
		c0-51.46,0-102.91,0-154.37h-25.65C-2716.61,1625.99-2716.61,1670.9-2716.61,1715.8z"/>
	<path class="st2" d="M-2702.82,1777.58c-5.17-3.99-10.6-7.65-15.58-11.85c-3.58-3.03-7.29-4.17-11.97-4.05
		c-12.09,0.3-24.19,0.1-36.52,0.1c-0.94,7.15,1.22,12.12,7.34,15.07c14.74,7.11,29.45,14.28,44.22,21.33
		c6.51,3.11,12.69,1.45,16.11-4.06C-2695.66,1788.4-2696.99,1782.08-2702.82,1777.58z"/>
	<path class="st2" d="M-3066.86,1761.84c-0.96,0.01-2.03,0.58-2.84,1.18c-6.74,5-13.65,9.81-20.01,15.26
		c-2.3,1.97-4.28,5.38-4.65,8.34c-1.19,9.67,8.39,15.97,17.52,11.67c14.69-6.91,29.26-14.06,43.85-21.17
		c6.71-3.27,8.68-7.08,7.89-15.33C-3039.18,1761.79-3053.02,1761.77-3066.86,1761.84z"/>
</g>
<g>
	<path class="st3" d="M-2304.28,1448.42c3.64-3.37,8.35-3.79,12.89-4.5c24.41-3.81,48.23-1.45,71.01,8.16
		c39.52,16.68,65.79,45.58,78.3,86.75c0.81,2.67,1.46,5.4,2.08,8.13c1.53,6.66-1.96,12.58-8.29,14.13
		c-6.09,1.5-12.17-2.17-13.75-8.66c-2.04-8.36-4.61-16.52-8.33-24.3c-7.03-14.72-16.81-27.3-29.45-37.64
		c-19.05-15.59-40.86-24.1-65.45-25.37c-9.18-0.47-18.29,0.31-27.3,2.16c-4.5,0.92-8.5,0.09-11.65-3.42
		c-2.68-2.99-3.52-6.53-2.56-10.46c0.12-0.47,0.14-0.97,0.21-1.46C-2305.8,1450.77-2305.04,1449.6-2304.28,1448.42z"/>
	<path class="st3" d="M-2230.81,1515.17c-15.89-9.94-32.79-13.67-51.09-10.75c-2.25,0.36-4.55,0.78-6.8,0.65
		c-5.41-0.32-9.65-4.65-10.23-10.09c-0.58-5.43,2.64-10.56,7.95-11.95c8.17-2.14,16.54-2.7,24.96-2.3
		c20.8,0.97,39.32,8.1,55.48,21.11c17.23,13.88,28.18,31.79,33.04,53.37c1.45,6.43-2.1,12.26-8.24,13.84
		c-5.93,1.53-11.96-1.94-13.71-8.16c-1.79-6.37-3.66-12.69-6.76-18.58c-5.24-9.93-12.3-18.28-21.43-24.85
		C-2228.79,1516.65-2229.92,1515.82-2230.81,1515.17z"/>
	<path class="st3" d="M-2238.39,1526.6c13.12,8.71,21.66,20.88,25.21,36.48c1.42,6.21-2.23,12.03-8.35,13.61
		c-5.72,1.48-11.8-1.83-13.49-7.69c-1.64-5.67-3.55-11.15-7.41-15.72c-8.67-10.26-19.66-14.65-33.01-12.91
		c-3.1,0.41-6.14,0.95-9.14-0.5c-4.73-2.3-7.26-6.82-6.59-11.96c0.62-4.76,4.36-8.64,9.32-9.58
		C-2266.36,1515.37-2251.94,1518.11-2238.39,1526.6z"/>
	<path class="st3" d="M-2283.62,1565.18c4.98-7.74,15.56-10.01,23.34-5.02c7.75,4.98,10.05,15.57,5.05,23.33
		c-4.99,7.75-15.54,10.02-23.34,5.03C-2286.3,1583.56-2288.6,1572.93-2283.62,1565.18z"/>
</g>
<g>
	<path class="st3" d="M-2200.89,1713.57c0,9.1-2.6,11.74-11.6,11.74c-111.82,0-223.64,0-335.46,0c-9.04,0-11.63-2.62-11.63-11.7
		c0-64.98,0-129.97,0-194.95c0-8.85,2.62-11.51,11.39-11.52c56.04-0.01,112.09,0,168.13,0c23.99,0,47.99,0,71.98,0v-25.62
		c-84.49,0-168.98-0.01-253.48,0.01c-15.04,0-23.64,8.59-23.64,23.52c-0.01,74.33-0.01,148.66,0,222.98
		c0,13.9,8.9,22.86,22.68,22.86c121.57,0.01,243.14,0.01,364.7-0.02c1.98,0,4.02-0.1,5.95-0.54c9.17-2.13,14.02-8.56,16.62-17.11
		c0-51.46,0-102.91,0-154.37h-25.65C-2200.89,1623.76-2200.89,1668.66-2200.89,1713.57z"/>
	<path class="st3" d="M-2187.1,1775.35c-5.17-3.99-10.6-7.65-15.58-11.85c-3.58-3.03-7.29-4.17-11.97-4.05
		c-12.09,0.3-24.19,0.1-36.52,0.1c-0.94,7.15,1.22,12.12,7.34,15.07c14.74,7.11,29.45,14.28,44.22,21.33
		c6.51,3.11,12.69,1.45,16.11-4.06C-2179.94,1786.16-2181.27,1779.85-2187.1,1775.35z"/>
	<path class="st3" d="M-2551.14,1759.61c-0.96,0.01-2.03,0.58-2.84,1.18c-6.74,5-13.65,9.81-20.01,15.26
		c-2.3,1.97-4.28,5.38-4.65,8.34c-1.19,9.67,8.39,15.97,17.52,11.67c14.69-6.91,29.26-14.06,43.85-21.17
		c6.71-3.27,8.68-7.08,7.89-15.33C-2523.46,1759.56-2537.3,1759.53-2551.14,1759.61z"/>
</g>
<text transform="matrix(1 0 0 1 66.7335 82.183)" class="st5 st6 st7">25</text>
<text transform="matrix(1 0 0 1 143.3565 69.8178)" class="st5 st6 st8">%</text>
<text transform="matrix(1 0 0 1 67.9625 117.3744)" class="st5 st6 st8">DESC.</text>
<text transform="matrix(1 0 0 1 248.4528 98.9963)" class="st2 st6 st9">Oferta online</text>
<g>
	<path class="st2" d="M-1038.63,607.95c4.47-4.74,4.19-11.6-0.71-16.37c-2.01-1.95-4.03-3.89-6.16-5.69
		c-32.86-27.79-70.61-37.79-112.85-30.34c-24.35,4.29-45.63,15.25-64.06,31.7c-3.43,3.06-7.15,5.97-8.38,10.78c0,1.4,0,2.8,0,4.2
		c0.21,0.44,0.45,0.88,0.61,1.34c1.33,3.83,3.95,6.34,7.83,7.4c4.54,1.24,8.36-0.23,11.64-3.45c6.56-6.44,13.78-12.05,21.75-16.64
		c21.34-12.29,44.28-16.98,68.74-14.23c16.22,1.82,31.26,7.07,45.16,15.62c7.34,4.52,13.93,9.97,20.19,15.89
		C-1050.02,612.73-1042.93,612.52-1038.63,607.95z"/>
	<path class="st2" d="M-1181.13,604.4c-7.28,4.24-14.01,9.25-19.71,15.49c-3.7,4.05-3.62,10.11-0.19,14.35
		c3.44,4.25,9.35,5.59,14.07,2.92c1.96-1.11,3.66-2.72,5.36-4.24c13.78-12.39,30-18.43,48.74-18.72c1.11,0.06,2.5,0.14,3.9,0.21
		c11.24,0.56,21.7,3.74,31.49,9.23c5.81,3.26,10.8,7.55,15.77,11.93c4.85,4.28,11.8,3.91,15.95-0.59c4.3-4.67,4.12-11.48-0.59-16.1
		c-15.8-15.49-34.72-24.58-56.73-26.88C-1143.71,589.85-1163.14,593.92-1181.13,604.4z"/>
	<path class="st2" d="M-1121.93,652.5c5.73,1.74,10.31,5.31,14.76,9.18c4.61,4.01,11.5,3.48,15.51-0.86
		c4.28-4.65,4.19-11.51-0.38-15.96c-11.45-11.17-25.23-16.75-40.98-16.94c-15.98,0.23-29.59,5.75-41,16.64
		c-3.65,3.48-4.69,8.78-2.63,13.11c2.24,4.68,6.81,7.11,12.03,6.47c3.31-0.41,5.57-2.51,7.95-4.54
		C-1146.4,650.87-1134.78,648.59-1121.93,652.5z"/>
	<path class="st2" d="M-1166.75,734.41h-69.68c-9.81,0-17.79-8.09-17.79-18.04V573.89c0-4.34-3.52-7.86-7.86-7.86
		c-4.34,0-7.86,3.52-7.86,7.86v142.48c0,18.62,15.03,33.77,33.51,33.77h69.68c4.34,0,7.86-3.52,7.86-7.86
		C-1158.89,737.93-1162.41,734.41-1166.75,734.41z"/>
	<path class="st2" d="M-1005.59,566.02c-4.34,0-7.86,3.52-7.86,7.86v142.48c0,9.95-7.98,18.04-17.78,18.04h-69.69
		c-4.34,0-7.86,3.52-7.86,7.86c0,4.34,3.52,7.86,7.86,7.86h69.69c18.48,0,33.51-15.15,33.51-33.77V573.89
		C-997.73,569.54-1001.25,566.02-1005.59,566.02z"/>
	<path class="st2" d="M-963.78,541.86l-155.75-125.49c-3.87-3.73-8.92-5.77-14.3-5.78h0c-5.38,0-10.43,2.05-14.31,5.78
		l-155.75,125.49c-3.38,2.73-3.91,7.68-1.19,11.06c2.72,3.37,7.66,3.91,11.06,1.19l156.05-125.74l0.65-0.59
		c0.93-0.94,2.17-1.47,3.48-1.47h0c1.31,0,2.55,0.52,3.48,1.46l156.71,126.33c1.45,1.17,3.2,1.74,4.93,1.74c2.3,0,4.57-1,6.13-2.93
		C-959.87,549.53-960.4,544.58-963.78,541.86z"/>
	<path class="st2" d="M-1088.6,781.74h-18.05c-10.65,0-19.32-8.5-19.32-18.96v-62.74c5.71-2.74,9.7-8.56,9.69-15.22
		c-0.01-9.23-7.69-16.88-16.9-16.85c-9.24,0.03-16.89,7.69-16.87,16.89c0.02,6.1,3.41,11.51,8.36,14.47v63.45
		c0,19.12,15.72,34.68,35.05,34.68h18.05c10.65,0,19.32,8.5,19.32,18.95v26.64c0,4.34,3.52,7.86,7.86,7.86
		c4.34,0,7.86-3.52,7.86-7.86v-26.64C-1053.56,797.29-1069.28,781.74-1088.6,781.74z"/>
</g>
<g>
	<path class="st3" d="M-714.98,602.12c1.23-4.81,4.95-7.72,8.38-10.78c18.43-16.45,39.71-27.41,64.06-31.7
		c42.25-7.45,79.99,2.56,112.85,30.34c2.13,1.8,4.16,3.74,6.16,5.69c4.91,4.76,5.18,11.62,0.71,16.37c-4.3,4.57-11.4,4.78-16.25,0.2
		c-6.26-5.91-12.84-11.37-20.19-15.89c-13.9-8.55-28.94-13.8-45.16-15.62c-24.46-2.75-47.4,1.95-68.74,14.23
		c-7.97,4.59-15.19,10.19-21.75,16.64c-3.28,3.22-7.09,4.69-11.64,3.45c-3.88-1.06-6.5-3.57-7.83-7.4
		c-0.16-0.46-0.41-0.89-0.61-1.34C-714.98,604.91-714.98,603.52-714.98,602.12z"/>
	<path class="st3" d="M-617.04,618.28c-18.74,0.28-34.96,6.32-48.74,18.72c-1.69,1.52-3.4,3.13-5.36,4.24
		c-4.72,2.67-10.63,1.33-14.07-2.92c-3.44-4.24-3.51-10.3,0.19-14.35c5.7-6.24,12.43-11.25,19.71-15.49
		c17.99-10.48,37.42-14.55,58.06-12.39c22,2.3,40.92,11.39,56.73,26.88c4.71,4.62,4.89,11.43,0.59,16.1
		c-4.15,4.5-11.09,4.87-15.95,0.59c-4.97-4.38-9.96-8.67-15.77-11.93c-9.79-5.5-20.26-8.68-31.49-9.23
		C-614.54,618.42-615.94,618.34-617.04,618.28z"/>
	<path class="st3" d="M-617.21,631.99c15.75,0.19,29.53,5.78,40.98,16.94c4.56,4.45,4.66,11.31,0.38,15.96
		c-4,4.35-10.9,4.87-15.51,0.86c-4.45-3.87-9.03-7.43-14.76-9.18c-12.85-3.91-24.47-1.63-34.73,7.08c-2.39,2.03-4.64,4.14-7.95,4.54
		c-5.22,0.64-9.79-1.78-12.03-6.47c-2.07-4.33-1.03-9.62,2.63-13.11C-646.79,637.74-633.19,632.22-617.21,631.99z"/>
	<path class="st3" d="M-634.24,688.94c-0.02-9.2,7.63-16.86,16.87-16.89c9.21-0.03,16.89,7.62,16.9,16.85
		c0.01,9.21-7.61,16.85-16.87,16.89C-626.51,705.84-634.22,698.16-634.24,688.94z"/>
</g>
<g>
	<path class="st3" d="M-650.94,738.5h-69.68c-9.81,0-17.79-8.09-17.79-18.04V577.97c0-4.34-3.52-7.86-7.86-7.86
		c-4.34,0-7.86,3.52-7.86,7.86v142.48c0,18.62,15.03,33.77,33.51,33.77h69.68c4.34,0,7.86-3.52,7.86-7.86
		C-643.07,742.02-646.59,738.5-650.94,738.5z"/>
	<path class="st3" d="M-489.77,570.11c-4.34,0-7.86,3.52-7.86,7.86v142.48c0,9.95-7.98,18.04-17.78,18.04h-69.69
		c-4.34,0-7.86,3.52-7.86,7.86c0,4.34,3.52,7.86,7.86,7.86h69.69c18.48,0,33.51-15.15,33.51-33.77V577.97
		C-481.91,573.63-485.43,570.11-489.77,570.11z"/>
	<path class="st3" d="M-447.97,545.94l-155.75-125.49c-3.87-3.73-8.92-5.77-14.3-5.78h0c-5.38,0-10.43,2.05-14.31,5.78
		l-155.75,125.49c-3.38,2.73-3.91,7.68-1.19,11.06c2.72,3.37,7.66,3.91,11.06,1.19l156.05-125.74l0.65-0.59
		c0.93-0.94,2.17-1.47,3.48-1.47h0c1.31,0,2.55,0.52,3.48,1.46l156.71,126.33c1.45,1.17,3.2,1.74,4.93,1.74c2.3,0,4.57-1,6.13-2.93
		C-444.05,553.62-444.58,548.67-447.97,545.94z"/>
	<g>
		<path class="st3" d="M-572.79,785.82h-18.05c-10.65,0-19.32-8.5-19.32-18.96v-72.92h-15.73v72.92c0,19.12,15.72,34.68,35.05,34.68
			h18.05c10.65,0,19.32,8.5,19.32,18.95v26.64c0,4.34,3.52,7.86,7.86,7.86c4.34,0,7.86-3.52,7.86-7.86V820.5
			C-537.74,801.38-553.46,785.82-572.79,785.82z"/>
	</g>
</g>
<g>
	<path class="st2" d="M-933.37,1236.65c-2.89-4.22-7.71-6.74-12.9-6.74h-2.21v-220.07c0-11.79-9.59-21.38-21.38-21.38h-320.76
		c-11.79,0-21.38,9.59-21.38,21.38v220.07h-2.21c-5.19,0-10.01,2.52-12.9,6.74c-2.8,4.08-3.41,9.26-1.62,13.88
		c8.59,22.24,30.89,37.18,55.48,37.18h129.61c-0.79-3.15-1.22-6.45-1.22-9.84v-4.41h-128.39c-18.74,0-35.7-11.28-41.99-27.48l0-0.97
		l-0.12-0.3c0.14-0.2,0.47-0.54,1.15-0.54h2.21h141.95v10.96c0,3.94,3.19,7.12,7.12,7.12h18.06v-32.33h-152.88v-220.07
		c0-3.93,3.2-7.12,7.13-7.12h320.76c3.93,0,7.13,3.2,7.13,7.12v220.07h-154.4v32.33h19.57c3.94,0,7.13-3.19,7.13-7.12v-10.96h141.95
		h2.21c0.68,0,1.01,0.34,1.23,1.23c-6.49,16.79-23.44,28.07-42.18,28.07h-129.91v4.41c0,3.93,1.82,7.46,4.68,9.84h125.23
		c24.59,0,46.89-14.94,55.49-37.2C-929.97,1245.91-930.58,1240.73-933.37,1236.65z"/>
</g>
<path class="st2" d="M-1086.11,1296.11h-18.05c-10.65,0-19.32-8.5-19.32-18.96v-62.74c5.71-2.74,9.7-8.56,9.69-15.22
	c-0.01-9.23-7.69-16.88-16.9-16.85c-9.24,0.03-16.89,7.69-16.87,16.89c0.02,6.1,3.41,11.51,8.36,14.47v63.45
	c0,19.12,15.72,34.68,35.05,34.68h18.05c10.65,0,19.32,8.5,19.32,18.95v26.64c0,4.34,3.52,7.86,7.86,7.86
	c4.34,0,7.86-3.52,7.86-7.86v-26.64C-1051.07,1311.66-1066.79,1296.11-1086.11,1296.11z"/>
<path class="st2" d="M-1034.87,1129.91c4.47-4.74,4.19-11.6-0.71-16.37c-2.01-1.95-4.03-3.89-6.16-5.69
	c-32.86-27.79-70.61-37.79-112.85-30.34c-24.35,4.29-45.63,15.25-64.06,31.7c-3.43,3.06-7.15,5.97-8.38,10.78c0,1.4,0,2.8,0,4.2
	c0.21,0.44,0.45,0.88,0.61,1.34c1.33,3.83,3.95,6.34,7.83,7.4c4.54,1.24,8.36-0.23,11.64-3.45c6.56-6.44,13.78-12.05,21.75-16.64
	c21.34-12.29,44.28-16.98,68.74-14.23c16.22,1.82,31.26,7.07,45.16,15.62c7.34,4.52,13.93,9.97,20.19,15.89
	C-1046.27,1134.69-1039.17,1134.48-1034.87,1129.91z"/>
<path class="st2" d="M-1177.37,1126.36c-7.28,4.24-14.01,9.25-19.71,15.49c-3.7,4.05-3.62,10.11-0.19,14.35
	c3.44,4.25,9.35,5.59,14.07,2.92c1.96-1.11,3.66-2.72,5.36-4.24c13.78-12.39,30-18.43,48.74-18.72c1.11,0.06,2.5,0.14,3.9,0.21
	c11.24,0.56,21.7,3.74,31.49,9.23c5.81,3.26,10.8,7.55,15.77,11.93c4.85,4.28,11.8,3.91,15.95-0.59c4.3-4.67,4.12-11.48-0.59-16.1
	c-15.8-15.49-34.72-24.58-56.73-26.88C-1139.95,1111.81-1159.38,1115.88-1177.37,1126.36z"/>
<path class="st2" d="M-1118.17,1174.46c5.73,1.74,10.31,5.31,14.76,9.18c4.61,4.01,11.5,3.48,15.51-0.86
	c4.28-4.65,4.19-11.51-0.38-15.96c-11.45-11.17-25.23-16.75-40.98-16.94c-15.98,0.23-29.59,5.75-41,16.64
	c-3.65,3.48-4.69,8.78-2.63,13.11c2.24,4.68,6.81,7.11,12.03,6.47c3.31-0.41,5.57-2.51,7.95-4.54
	C-1142.64,1172.83-1131.02,1170.55-1118.17,1174.46z"/>
<g>
	<path class="st3" d="M-411.36,1234.31c-2.89-4.22-7.71-6.74-12.9-6.74h-2.21V1007.5c0-11.79-9.59-21.38-21.38-21.38h-320.76
		c-11.79,0-21.38,9.59-21.38,21.38v220.07h-2.21c-5.19,0-10.01,2.52-12.9,6.74c-2.8,4.08-3.41,9.26-1.62,13.88
		c8.59,22.24,30.89,37.18,55.48,37.18h129.61c-0.79-3.15-1.22-6.45-1.22-9.84v-4.41h-128.39c-18.74,0-35.7-11.28-41.99-27.48l0-0.97
		l-0.12-0.3c0.14-0.2,0.47-0.54,1.15-0.54h2.21h141.95v10.96c0,3.94,3.19,7.12,7.12,7.12h18.06v-32.33h-152.88V1007.5
		c0-3.93,3.2-7.12,7.13-7.12h320.76c3.93,0,7.13,3.2,7.13,7.12v220.07h-154.4v32.33h19.57c3.94,0,7.13-3.19,7.13-7.12v-10.96h141.95
		h2.21c0.68,0,1.01,0.34,1.23,1.23c-6.49,16.79-23.44,28.07-42.18,28.07h-129.91v4.41c0,3.93,1.82,7.46,4.68,9.84h125.23
		c24.59,0,46.89-14.94,55.49-37.2C-407.96,1243.57-408.57,1238.39-411.36,1234.31z"/>
</g>
<path class="st3" d="M-564.1,1293.77h-18.05c-10.65,0-19.32-8.5-19.32-18.96v-62.74c5.71-2.74,9.7-8.56,9.69-15.22
	c-0.01-9.23-7.69-16.88-16.9-16.85c-9.24,0.03-16.89,7.69-16.87,16.89c0.02,6.1,3.41,11.51,8.36,14.47v63.45
	c0,19.12,15.72,34.68,35.05,34.68h18.05c10.65,0,19.32,8.5,19.32,18.95v26.64c0,4.34,3.52,7.86,7.86,7.86
	c4.34,0,7.86-3.52,7.86-7.86v-26.64C-529.06,1309.33-544.78,1293.77-564.1,1293.77z"/>
<path class="st3" d="M-512.86,1127.58c4.47-4.74,4.19-11.6-0.71-16.37c-2.01-1.95-4.03-3.89-6.16-5.69
	c-32.86-27.79-70.61-37.79-112.85-30.34c-24.35,4.29-45.63,15.25-64.06,31.7c-3.43,3.06-7.15,5.97-8.38,10.78c0,1.4,0,2.8,0,4.2
	c0.21,0.44,0.45,0.88,0.61,1.34c1.33,3.83,3.95,6.34,7.83,7.4c4.54,1.24,8.36-0.23,11.64-3.45c6.56-6.44,13.78-12.05,21.75-16.64
	c21.34-12.29,44.28-16.98,68.74-14.23c16.22,1.82,31.26,7.07,45.16,15.62c7.34,4.52,13.93,9.97,20.19,15.89
	C-524.26,1132.36-517.16,1132.14-512.86,1127.58z"/>
<path class="st3" d="M-655.36,1124.03c-7.28,4.24-14.01,9.25-19.71,15.49c-3.7,4.05-3.62,10.11-0.19,14.35
	c3.44,4.25,9.35,5.59,14.07,2.92c1.96-1.11,3.66-2.72,5.36-4.24c13.78-12.39,30-18.43,48.74-18.72c1.11,0.06,2.5,0.14,3.9,0.21
	c11.24,0.56,21.7,3.74,31.49,9.23c5.81,3.26,10.8,7.55,15.77,11.93c4.85,4.28,11.8,3.91,15.95-0.59c4.3-4.67,4.12-11.48-0.59-16.1
	c-15.8-15.49-34.72-24.58-56.73-26.88C-617.94,1109.48-637.37,1113.55-655.36,1124.03z"/>
<path class="st3" d="M-596.16,1172.12c5.73,1.74,10.31,5.31,14.76,9.18c4.61,4.01,11.5,3.48,15.51-0.86
	c4.28-4.65,4.19-11.51-0.38-15.96c-11.45-11.17-25.23-16.75-40.98-16.94c-15.98,0.23-29.59,5.75-41,16.64
	c-3.65,3.48-4.69,8.78-2.63,13.11c2.24,4.68,6.81,7.11,12.03,6.47c3.31-0.41,5.57-2.51,7.95-4.54
	C-620.63,1170.49-609.01,1168.21-596.16,1172.12z"/>
<g id="XMLID_2753_">
	<path id="XMLID_2765_" class="st2" d="M-919.43,1527.95c-2.79-1.85-5.25-2.95-7.02-4.73c-53-53.44-130.92-56.62-187.15-7.56
		c-4.78,4.17-9.7,4.65-12.4,0.88c-3.37-4.7-1.2-8.34,2.58-11.8c58.75-53.74,153.21-50.18,206.83,8.06c2.11,2.3,3.03,6.45,2.96,9.7
		C-913.69,1524.21-917.07,1525.85-919.43,1527.95z"/>
	<path id="XMLID_2764_" class="st2" d="M-1030.23,1504.55c4.48-0.66,8.99-1.05,13.49-0.53c23.21,2.7,43.45,11.44,60.79,27.49
		c1.66,1.54,4.09,3.09,4.47,4.98c0.58,2.85,0.74,7.09-0.91,8.74c-1.68,1.67-5.89,1.52-8.77,0.97c-1.9-0.36-3.4-2.84-5.07-4.38
		c-32.13-29.55-79.99-30.43-113.11-2.08c-0.79,0.67-1.52,1.4-2.33,2.04c-3.55,2.8-7.44,3.28-10.57-0.12
		c-3.37-3.66-2.49-7.69,1.07-10.93c10.04-9.17,21.75-15.28,34.36-20.37C-1045.25,1505.69-1041.77,1506.24-1030.23,1504.55z"/>
	<path id="XMLID_2761_" class="st2" d="M-999.09,1597.85c0.12,12.99-10.07,23.43-22.92,23.49c-12.87,0.07-23.25-10.3-23.25-23.22
		c0-12.56,10.12-22.93,22.67-23.22C-1009.81,1574.6-999.2,1584.96-999.09,1597.85z M-1013.43,1598.08c-0.04-4.54-4.19-8.6-8.75-8.56
		c-4.73,0.04-8.49,3.91-8.46,8.7c0.04,4.68,4.03,8.69,8.59,8.63C-1017.56,1606.78-1013.39,1602.53-1013.43,1598.08z"/>
	<path id="XMLID_2760_" class="st2" d="M-993.56,1555.31c2.14,2.91,2.05,6.97-0.45,9.59c-0.51,0.53-1.03,0.91-1.62,1.07
		c-2.54,0.66-6.25,0.17-8.36-1.35c-8.56-6.17-17.73-9.05-27.94-5.9c-4.41,1.36-8.51,4.03-12.41,6.63
		c-3.93,2.62-7.69,3.61-11.04-0.18c-3.67-4.15-1.92-7.93,1.78-11.24c15.51-13.84,41.78-14.47,57.72-1.18
		C-995.02,1553.45-994.28,1554.33-993.56,1555.31z"/>
	<g id="XMLID_2758_">
		<path id="XMLID_2759_" class="st2" d="M-1099.83,1743.42c-0.09,0-0.18,0-0.27,0c-4.59-0.12-8.24-3.38-8.87-7.93l-10.8-76.54
			l-10.34,73.9c-0.67,4.77-4.49,8.18-9.3,8.31c-4.8,0.14-8.81-3.08-9.74-7.8l-10.86-55.6l-5.56,18.48
			c-1.24,4.11-4.95,6.87-9.25,6.87h-75.4c-3.08,0-5.58-2.5-5.58-5.58l0,0c0-3.08,2.5-5.58,5.58-5.58h74.28l6.99-23.25
			c1.3-4.33,5.21-7.08,9.73-6.86c4.51,0.22,8.13,3.36,9,7.79l10.3,52.74l12.32-88.04c0.55-3.94,3.84-6.8,7.81-6.8h0
			c3.93,0,7.27,2.9,7.82,6.79l12.43,88.09l10.31-52.78c0.87-4.44,4.48-7.57,9-7.79c4.52-0.22,8.42,2.53,9.73,6.86l6.99,23.25h74.28
			c3.08,0,5.58,2.5,5.58,5.58l0,0c0,3.08-2.5,5.58-5.58,5.58h-75.4c-4.29,0-8.01-2.76-9.25-6.87l-5.56-18.48l-11.37,58.21
			C-1091.68,1740.39-1095.36,1743.42-1099.83,1743.42z"/>
	</g>
	<path id="XMLID_2757_" class="st2" d="M-937.13,1595.45c-0.02-17.25-12.13-29.07-29.41-29.14c-6.61-0.03-10.2,2.49-10.3,7.2
		c-0.1,4.79,3.19,7.22,9.99,7.4c9.82,0.26,14.81,5.04,15.41,14.79c0.11,1.85-0.03,163.32,0.01,186.46
		c0.02,12.45-4.86,17.23-17.26,17.23c-100.5,0.01-201,0.01-301.49,0c-12.66,0-17.26-4.53-17.24-17.11
		c0.05-28.9,0.06-151.54,0-183.95c-0.02-12.93,4.54-17.42,17.59-17.42c64.52-0.01,129.03,0,193.55-0.01c2.07,0,4.65,0.68,6.08-0.29
		c2.46-1.66,5.5-4.21,5.83-6.72c0.28-2.11-2.62-5.04-4.73-6.91c-1.12-0.99-3.55-0.67-5.39-0.67c-65.96-0.02-131.93-0.07-197.89,0.02
		c-17.75,0.02-29.57,11.99-29.65,29.61c-0.12,29.14-0.09,153.94-0.02,187.2c0.04,19.24,11.62,30.87,30.89,30.89
		c32.67,0.04,272.7,0.08,304.28,0c17.87-0.04,29.74-11.72,29.76-29.41C-937.05,1721.57-937.06,1658.51-937.13,1595.45z"/>
	<path id="XMLID_2754_" class="st2" d="M-958.03,1852.36c-18.4-0.05-59.65-0.02-62.51-0.02c0-5.43,0.01-10.13,0-14.83
		c-0.03-10.37-2.86-13.17-13.3-13.18c-12.76-0.01-159.45-0.05-172.67,0.01c-8.76,0.04-11.86,3.2-11.95,12.06
		c-0.05,4.94-0.01,9.87-0.01,15.94c-2.9,0-42.51,0.02-60.29,0.01c-8.74,0-12.09,1.9-12.2,7c-0.12,5.29,3.44,7.42,12.45,7.42
		c104.01,0,208.02,0.01,312.04,0.01c2.89,0,5.79-0.05,8.68-0.01c5,0.07,9.28-0.96,9.64-7.05
		C-947.86,1854.78-951.09,1852.38-958.03,1852.36z M-1035.64,1851.89c-55.85,0-111.72,0-168.15,0c0-4.49,0-8.18,0-12.42
		c55.98,0,111.84,0,168.15,0C-1035.64,1843.39-1035.64,1847.4-1035.64,1851.89z"/>
</g>
<g id="XMLID_1_">
	<path id="XMLID_13_" class="st3" d="M-419.34,1536.88c-2.79-1.85-5.25-2.95-7.02-4.73c-53-53.44-130.92-56.62-187.15-7.56
		c-4.78,4.17-9.7,4.65-12.4,0.88c-3.37-4.7-1.2-8.34,2.58-11.8c58.75-53.74,153.21-50.18,206.82,8.06c2.11,2.3,3.03,6.45,2.96,9.7
		C-413.59,1533.14-416.98,1534.78-419.34,1536.88z"/>
	<path id="XMLID_12_" class="st3" d="M-530.14,1513.48c4.48-0.66,8.99-1.05,13.49-0.53c23.21,2.7,43.45,11.44,60.79,27.49
		c1.66,1.54,4.09,3.09,4.47,4.98c0.58,2.85,0.74,7.09-0.91,8.74c-1.68,1.67-5.89,1.52-8.77,0.97c-1.9-0.36-3.4-2.84-5.07-4.38
		c-32.13-29.55-79.99-30.43-113.11-2.08c-0.79,0.67-1.52,1.4-2.33,2.04c-3.55,2.8-7.44,3.28-10.57-0.12
		c-3.37-3.66-2.49-7.69,1.07-10.93c10.04-9.17,21.75-15.28,34.36-20.37C-545.16,1514.62-541.68,1515.17-530.14,1513.48z"/>
	<path id="XMLID_9_" class="st3" d="M-498.99,1606.78c0.12,12.99-10.07,23.43-22.92,23.49c-12.87,0.07-23.25-10.3-23.25-23.22
		c0-12.56,10.12-22.92,22.67-23.22C-509.72,1583.53-499.11,1593.89-498.99,1606.78z M-513.34,1607.01c-0.04-4.54-4.19-8.6-8.75-8.56
		c-4.73,0.04-8.49,3.91-8.45,8.7c0.04,4.68,4.03,8.69,8.59,8.63C-517.47,1615.71-513.3,1611.46-513.34,1607.01z"/>
	<path id="XMLID_8_" class="st3" d="M-493.46,1564.24c2.14,2.91,2.05,6.97-0.45,9.59c-0.51,0.53-1.03,0.91-1.62,1.07
		c-2.54,0.66-6.25,0.17-8.36-1.35c-8.56-6.17-17.73-9.05-27.94-5.9c-4.41,1.36-8.51,4.03-12.41,6.63
		c-3.93,2.62-7.69,3.61-11.04-0.18c-3.67-4.15-1.92-7.93,1.78-11.24c15.51-13.84,41.78-14.47,57.72-1.18
		C-494.92,1562.38-494.19,1563.26-493.46,1564.24z"/>
	<g id="XMLID_6_">
		<path id="XMLID_7_" class="st3" d="M-599.74,1752.35c-0.09,0-0.18,0-0.27,0c-4.59-0.12-8.24-3.38-8.87-7.93l-10.8-76.54
			l-10.34,73.9c-0.67,4.77-4.49,8.18-9.3,8.31c-4.8,0.14-8.81-3.08-9.74-7.8l-10.86-55.6l-5.56,18.48
			c-1.24,4.11-4.95,6.87-9.25,6.87h-75.4c-3.08,0-5.58-2.5-5.58-5.58l0,0c0-3.08,2.5-5.58,5.58-5.58h74.28l6.99-23.25
			c1.3-4.33,5.21-7.08,9.73-6.86c4.51,0.22,8.13,3.36,9,7.79l10.3,52.74l12.32-88.04c0.55-3.94,3.84-6.8,7.81-6.8h0
			c3.93,0,7.27,2.9,7.82,6.79l12.43,88.09l10.31-52.78c0.87-4.44,4.48-7.57,9-7.79c4.52-0.22,8.42,2.53,9.73,6.86l6.99,23.25h74.28
			c3.08,0,5.58,2.5,5.58,5.58l0,0c0,3.08-2.5,5.58-5.58,5.58h-75.4c-4.29,0-8.01-2.76-9.25-6.87l-5.56-18.48l-11.37,58.21
			C-591.58,1749.32-595.27,1752.35-599.74,1752.35z"/>
	</g>
	<path id="XMLID_5_" class="st3" d="M-437.04,1604.38c-0.02-17.25-12.13-29.07-29.41-29.14c-6.61-0.03-10.2,2.49-10.3,7.2
		c-0.1,4.79,3.19,7.22,9.99,7.4c9.82,0.26,14.81,5.04,15.41,14.79c0.11,1.85-0.03,163.32,0.01,186.46
		c0.02,12.45-4.86,17.23-17.26,17.23c-100.5,0.01-201,0.01-301.49,0c-12.66,0-17.26-4.53-17.24-17.11
		c0.05-28.9,0.06-151.54,0-183.95c-0.02-12.93,4.54-17.42,17.59-17.42c64.52-0.01,129.03,0,193.55-0.01c2.07,0,4.65,0.68,6.08-0.29
		c2.46-1.66,5.5-4.21,5.83-6.72c0.28-2.11-2.62-5.04-4.73-6.91c-1.12-0.99-3.55-0.67-5.39-0.67c-65.96-0.02-131.93-0.07-197.89,0.02
		c-17.75,0.02-29.57,11.99-29.65,29.61c-0.12,29.14-0.09,153.94-0.02,187.2c0.04,19.24,11.62,30.87,30.89,30.89
		c32.67,0.04,272.7,0.08,304.28,0c17.87-0.04,29.74-11.71,29.76-29.41C-436.96,1730.5-436.96,1667.44-437.04,1604.38z"/>
	<path id="XMLID_2_" class="st3" d="M-457.93,1861.29c-18.4-0.05-59.65-0.02-62.51-0.02c0-5.43,0.01-10.13,0-14.83
		c-0.03-10.37-2.86-13.17-13.3-13.18c-12.76-0.01-159.45-0.05-172.67,0.01c-8.76,0.04-11.86,3.2-11.95,12.06
		c-0.05,4.94-0.01,9.87-0.01,15.94c-2.9,0-42.51,0.02-60.29,0.01c-8.74,0-12.09,1.9-12.2,7c-0.12,5.29,3.44,7.42,12.45,7.42
		c104.01,0,208.02,0.01,312.04,0.01c2.89,0,5.79-0.05,8.68-0.01c5,0.07,9.28-0.96,9.64-7.05
		C-447.77,1863.71-451,1861.31-457.93,1861.29z M-535.54,1860.82c-55.85,0-111.72,0-168.15,0c0-4.49,0-8.18,0-12.42
		c55.98,0,111.84,0,168.15,0C-535.54,1852.32-535.54,1856.33-535.54,1860.82z"/>
</g>
</svg>
