<?xml version="1.0" ?><svg data-name="Layer 1" fill="blue" id="Layer_1" viewBox="0 0 50 50" xmlns="http://www.w3.org/2000/svg"><title/><path d="M46,27.2H38.34L44.82,7.75a1,1,0,0,0-1.9-.63L36.24,27.2H13.76L7.08,7.12a1,1,0,0,0-1.9.63L11.66,27.2H4a3,3,0,0,0-3,3V40.56a3,3,0,0,0,3,3H46a3,3,0,0,0,3-3V30.2A3,3,0,0,0,46,27.2Zm1,13.36a1,1,0,0,1-1,1H4a1,1,0,0,1-1-1V30.2a1,1,0,0,1,1-1H46a1,1,0,0,1,1,1Z"/><path d="M32.29,16.78A1,1,0,0,0,33,15.07a11.33,11.33,0,0,0-16,0,1,1,0,0,0,0,1.42,1,1,0,0,0,1.41,0,9.34,9.34,0,0,1,13.18,0A1,1,0,0,0,32.29,16.78Z"/><path d="M14.19,13.27A1,1,0,0,0,14.9,13a14.3,14.3,0,0,1,20.2,0,1,1,0,0,0,1.41,0,1,1,0,0,0,0-1.42,16.29,16.29,0,0,0-23,0,1,1,0,0,0,.7,1.71Z"/><path d="M21,19.08a1,1,0,0,0,0,1.42,1,1,0,0,0,1.41,0,3.73,3.73,0,0,1,5.16,0,1,1,0,0,0,.7.29A1,1,0,0,0,29,20.5a1,1,0,0,0,0-1.42,5.65,5.65,0,0,0-8,0Z"/><path d="M14.07,35H12.13a1,1,0,0,0,0,2h1.94a1,1,0,0,0,0-2Z"/><path d="M22,35H20.07a1,1,0,0,0,0,2H22a1,1,0,0,0,0-2Z"/><path d="M29.93,35H28a1,1,0,0,0,0,2h1.93a1,1,0,0,0,0-2Z"/><path d="M37.86,35H35.93a1,1,0,0,0,0,2h1.93a1,1,0,0,0,0-2Z"/></svg>