<?xml version="1.0" ?><svg data-name="Layer 2" fill='blue' id="bdf8ded2-f182-45a8-b90a-8e4350456019" viewBox="0 0 35 35" xmlns="http://www.w3.org/2000/svg"><path d="M9.9,15.79a1.25,1.25,0,0,1-1.25-1.25V1.756a1.25,1.25,0,0,1,2.5,0V14.54A1.249,1.249,0,0,1,9.9,15.79Z"/><path d="M30.559,30.83H4.441A4.2,4.2,0,0,1,.25,26.638V17.481A4.2,4.2,0,0,1,4.441,13.29H30.559a4.2,4.2,0,0,1,4.191,4.191v9.157A4.2,4.2,0,0,1,30.559,30.83ZM4.441,15.79A1.693,1.693,0,0,0,2.75,17.481v9.157A1.693,1.693,0,0,0,4.441,28.33H30.559a1.694,1.694,0,0,0,1.691-1.692V17.481a1.693,1.693,0,0,0-1.691-1.691Z"/><path d="M27.067,23.56a1.5,1.5,0,0,0,0-3,1.5,1.5,0,0,0,0,3Z"/><path d="M22.067,23.56a1.5,1.5,0,0,0,0-3,1.5,1.5,0,0,0,0,3Z"/><path d="M11.831,23.31H7.272a1.25,1.25,0,0,1,0-2.5h4.559a1.25,1.25,0,0,1,0,2.5Z"/><path d="M4.521,34.494a1.25,1.25,0,0,1-1.21-1.567l.96-3.664a1.25,1.25,0,0,1,2.418.633l-.96,3.664A1.251,1.251,0,0,1,4.521,34.494Z"/><path d="M30.479,34.494a1.25,1.25,0,0,1-1.208-.934l-.96-3.664a1.25,1.25,0,0,1,2.418-.633l.96,3.664a1.25,1.25,0,0,1-1.21,1.567Z"/></svg>