<svg xmlns="http://www.w3.org/2000/svg" viewBox="0 0 50.72 49.81"><defs><style>.cls-1{fill:#0f62a7;stroke:#0f62a7;stroke-miterlimit:10;}</style></defs><g id="Capa_2" data-name="Capa 2"><g id="Capa_1-2" data-name="Capa 1"><g id="Xpk6gc.tif"><path class="cls-1" d="M17.22,11.38V46.14a3,3,0,0,1-6,.32c0-.19,0-.38,0-.56V11.38l-.41.38c-1.69,1.69-3.37,3.39-5.07,5.07a3,3,0,0,1-5-1,3,3,0,0,1,.79-3.28l6.39-6.4C9.25,4.75,10.61,3.38,12,2a3,3,0,0,1,4.41,0Q21.69,7.27,27,12.56a2.93,2.93,0,0,1,.82,3,2.83,2.83,0,0,1-2.2,2.1,3,3,0,0,1-2.92-.89l-5-5C17.54,11.67,17.41,11.57,17.22,11.38Z"/></g><g id="Xpk6gc.tif-2" data-name="Xpk6gc.tif"><path class="cls-1" d="M33.5,38.43V3.67a3,3,0,0,1,6-.32c0,.19,0,.38,0,.57V38.43l.41-.38C41.63,36.36,43.31,34.66,45,33a3,3,0,0,1,5,1,3,3,0,0,1-.79,3.28l-6.39,6.4-4.1,4.1a3,3,0,0,1-4.41,0Q29,42.54,23.77,37.25a2.93,2.93,0,0,1-.82-3,2.83,2.83,0,0,1,2.2-2.1,3,3,0,0,1,2.92.89l5,5C33.18,38.14,33.31,38.25,33.5,38.43Z"/></g></g></g></svg>