<svg xmlns="http://www.w3.org/2000/svg" viewBox="0 0 54.57 59.07"><defs><style>.cls-1{fill:#0f62a7;stroke:#0f62a7;stroke-miterlimit:10;stroke-width:0.27px;}</style></defs><g id="Capa_2" data-name="Capa 2"><g id="Capa_1-2" data-name="Capa 1"><g id="ShVGmk.tif"><path class="cls-1" d="M27.28,58.93h-23A3.81,3.81,0,0,1,.54,56.79,3.35,3.35,0,0,1,.3,54.18a37.67,37.67,0,0,1,2.86-7.46,19,19,0,0,1,13.77-9.56.84.84,0,0,1,.84.32,13.84,13.84,0,0,0,6.15,3.82,12,12,0,0,0,10.23-1.61,23.66,23.66,0,0,0,2.69-2.22,1,1,0,0,1,1-.29C45.36,38.66,50.44,43,53,50.28c.44,1.25.91,2.51,1.26,3.79a3.72,3.72,0,0,1-3.67,4.85c-1.42,0-2.83,0-4.25,0Z"/><path class="cls-1" d="M18.86,4.11c0,.64,0,1.29,0,1.93A2,2,0,0,0,21.55,7.9a2,2,0,0,0,1.27-2c0-1.48,0-2.95,0-4.42,0-.39.11-.59.49-.69.66-.17,1.31-.39,2-.61V.91c0,2.44,0,4.89,0,7.33a1.9,1.9,0,0,0,1.36,1.85,1.83,1.83,0,0,0,2.13-.68A2.75,2.75,0,0,0,29.25,8c0-2.37,0-4.74,0-7.1V.18c.8.25,1.53.46,2.24.73a.63.63,0,0,1,.27.51c0,1.51,0,3,0,4.53a2,2,0,0,0,2.65,2A1.78,1.78,0,0,0,35.7,6.34c.06-.74,0-1.48.08-2.25a12.79,12.79,0,0,1,2.93,4.37c.67,1.63,1.2,3.33,1.81,5.07a5.52,5.52,0,0,1,.61,0,3,3,0,0,1,.08,5.88,4.44,4.44,0,0,1-.63,0H14a3.25,3.25,0,0,1-2.44-.92,2.94,2.94,0,0,1,1.76-5c.28,0,.56-.05.89-.08a21.36,21.36,0,0,1,3.14-7.74c.41-.59.87-1.14,1.31-1.72Z"/><path class="cls-1" d="M15.16,23.08h24.3a18.18,18.18,0,0,1-.57,4.55,16.81,16.81,0,0,1-4.61,8.29,9.83,9.83,0,0,1-14,0,17.22,17.22,0,0,1-4.94-10c-.11-.71-.15-1.44-.22-2.16C15.14,23.52,15.16,23.33,15.16,23.08Z"/></g></g></g></svg>