<svg xmlns="http://www.w3.org/2000/svg" viewBox="0 0 63.27 57.7"><defs><style>.cls-1{fill:#0f62a7;stroke:#0f62a7;stroke-miterlimit:10;stroke-width:0.27px;}</style></defs><g id="Capa_2" data-name="Capa 2"><g id="Capa_1-2" data-name="Capa 1"><g id="fU4ZHd.tif"><path class="cls-1" d="M31.85,57.55c-6.83,0-13.66,0-20.49,0a9.34,9.34,0,0,1-.17-18.67c7.35,0,14.69,0,22,0,6.43,0,12.86,0,19.29,0a9.34,9.34,0,0,1,.16,18.67c-6.94.05-13.88,0-20.82,0Zm16.89-9.39a2.94,2.94,0,1,0,3-2.88A2.95,2.95,0,0,0,48.74,48.16Z"/><path class="cls-1" d="M31.91.13C44.43.46,54.62,5.22,62.52,14.74a2.14,2.14,0,0,1-1.19,3.64,2.21,2.21,0,0,1-2.14-1A34.85,34.85,0,0,0,4.44,18c-.15.2-.29.4-.44.59a2.15,2.15,0,0,1-3,.43,2.11,2.11,0,0,1-.36-3,38.45,38.45,0,0,1,8.2-8.16A39.19,39.19,0,0,1,27.5.46C29,.27,30.56.23,31.91.13Z"/><path class="cls-1" d="M33,10c9.08.31,17.13,4.4,23,12.54a2.12,2.12,0,0,1,.15,2.61,2,2,0,0,1-2.34.81,3.5,3.5,0,0,1-1.4-1.13A24.17,24.17,0,0,0,36.55,14.78c-10.41-1.68-18.81,1.91-25.08,10.4-.58.77-1.17,1.42-2.21,1.34A2.14,2.14,0,0,1,7.69,23.1a28.84,28.84,0,0,1,7.45-7.65C20.22,11.88,25.88,10.12,33,10Z"/><path class="cls-1" d="M32.54,19.91c7.08.22,13.13,3.69,16.94,10.85a2.14,2.14,0,0,1-.82,3.09,2.18,2.18,0,0,1-3-1.15,15.18,15.18,0,0,0-27.25.08c-.1.2-.19.41-.29.6a2.13,2.13,0,0,1-3.85-1.82,18.89,18.89,0,0,1,5.83-7.5C23.48,21.44,27.32,20.09,32.54,19.91Z"/></g></g></g></svg>