<?xml version="1.0" encoding="utf-8"?>
<!-- Generator: Adobe Illustrator 26.3.1, SVG Export Plug-In . SVG Version: 6.00 Build 0)  -->
<svg version="1.1" id="bdf8ded2-f182-45a8-b90a-8e4350456019"
	 xmlns="http://www.w3.org/2000/svg" xmlns:xlink="http://www.w3.org/1999/xlink" x="0px" y="0px" viewBox="0 0 35 35"
	 style="enable-background:new 0 0 35 35;" xml:space="preserve">
<style type="text/css">
	.st0{fill:#0F62A7;}
</style>
<path class="st0" d="M9.9,15.8c-0.7,0-1.2-0.6-1.2-1.2V1.8c0-0.7,0.6-1.2,1.2-1.2s1.2,0.6,1.2,1.2v12.8
	C11.2,15.2,10.6,15.8,9.9,15.8C9.9,15.8,9.9,15.8,9.9,15.8z"/>
<path class="st0" d="M30.6,30.8H4.4c-2.3,0-4.2-1.9-4.2-4.2v-9.2c0-2.3,1.9-4.2,4.2-4.2h26.1c2.3,0,4.2,1.9,4.2,4.2v9.2
	C34.7,29,32.9,30.8,30.6,30.8z M4.4,15.8c-0.9,0-1.7,0.8-1.7,1.7v9.2c0,0.9,0.8,1.7,1.7,1.7h26.1c0.9,0,1.7-0.8,1.7-1.7v-9.2
	c0-0.9-0.8-1.7-1.7-1.7L4.4,15.8z"/>
<path class="st0" d="M27.1,23.6c0.8,0,1.5-0.7,1.5-1.5s-0.7-1.5-1.5-1.5s-1.5,0.7-1.5,1.5S26.2,23.6,27.1,23.6z"/>
<path class="st0" d="M22.1,23.6c0.8,0,1.5-0.7,1.5-1.5s-0.7-1.5-1.5-1.5s-1.5,0.7-1.5,1.5S21.2,23.6,22.1,23.6z"/>
<path class="st0" d="M11.8,23.3H7.3c-0.7,0-1.2-0.6-1.2-1.2s0.6-1.2,1.2-1.2h4.6c0.7,0,1.2,0.6,1.2,1.2S12.5,23.3,11.8,23.3z"/>
<path class="st0" d="M4.5,34.5c-0.7,0-1.3-0.6-1.3-1.2c0-0.1,0-0.2,0-0.3l1-3.7c0.2-0.7,0.9-1,1.5-0.9c0.6,0.2,1,0.8,0.9,1.5l-1,3.7
	C5.6,34.1,5.1,34.5,4.5,34.5z"/>
<path class="st0" d="M30.5,34.5c-0.6,0-1.1-0.4-1.2-0.9l-1-3.7c-0.2-0.7,0.3-1.3,0.9-1.5c0.7-0.2,1.3,0.2,1.5,0.9l1,3.7
	c0.2,0.7-0.2,1.4-0.9,1.5C30.7,34.5,30.6,34.5,30.5,34.5z"/>
</svg>
