<svg version="1.1" id="Layer_1" xmlns="http://www.w3.org/2000/svg" xmlns:xlink="http://www.w3.org/1999/xlink" x="0px" y="0px"
	 width="100%" viewBox="0 0 150 148" enable-background="new 0 0 150 148" xml:space="preserve">
<path fill="#FFFEFE" opacity="1.000000" stroke="none" 
	d="
M82.000000,149.000000 
	C55.688351,149.000000 29.876606,148.969604 4.065218,149.051544 
	C1.731039,149.058975 0.918379,148.735382 0.924266,146.069916 
	C1.028733,98.776543 1.006627,51.482883 0.977487,4.189301 
	C0.976229,2.147442 0.826539,0.897527 3.805937,0.905778 
	C51.931805,1.039062 100.058258,1.038218 148.184128,0.907074 
	C151.138351,0.899023 151.026245,2.115107 151.024826,4.179361 
	C150.992599,51.472942 150.972168,98.766609 151.074066,146.059998 
	C151.079758,148.700653 150.303131,149.063965 147.944656,149.054077 
	C126.130081,148.962494 104.314964,149.000000 82.000000,149.000000 
z"/>
<path fill="#EB3995" opacity="1.000000" stroke="none" 
	d="
M33.845066,93.999649 
	C33.845360,70.520363 33.836765,47.540939 33.851601,24.561541 
	C33.855972,17.790550 35.223145,16.379015 42.009190,16.368423 
	C63.489891,16.334900 84.970734,16.329960 106.451401,16.372391 
	C113.401558,16.386120 114.858452,17.931652 114.861633,24.979425 
	C114.874283,52.954357 114.873535,80.929298 114.857361,108.904228 
	C114.855736,111.709274 114.253777,114.178665 118.757858,114.560249 
	C122.997482,114.919418 121.377403,119.193367 121.583481,121.937027 
	C121.820595,125.093620 119.349701,124.631607 117.408691,124.632477 
	C88.601173,124.645462 59.793652,124.644264 30.986128,124.635406 
	C29.044025,124.634811 26.610729,125.113319 27.022081,121.866096 
	C27.377890,119.057343 25.311104,114.776337 30.308241,114.416206 
	C33.680088,114.173203 33.949833,112.632622 33.883060,109.984627 
	C33.752979,104.825882 33.845062,99.661545 33.845066,93.999649 
z"/>
<path fill="#FFFBFD" opacity="1.000000" stroke="none" 
	d="
M88.074249,114.081619 
	C79.976982,113.941277 81.137047,115.121857 81.005226,107.450195 
	C80.993782,106.784248 81.003792,106.117935 81.003677,105.451797 
	C81.002357,97.841194 77.538979,95.405701 70.099770,97.565857 
	C67.494423,98.322388 67.539940,100.252571 67.370407,102.243416 
	C67.049820,106.007973 69.043579,110.925514 66.490913,113.259956 
	C63.784313,115.735176 58.850807,113.996544 54.900040,114.039871 
	C43.938484,114.160110 43.937595,114.081566 43.937626,103.318649 
	C43.937691,79.337631 44.024014,55.355988 43.848988,31.376249 
	C43.821331,27.587168 44.904259,26.638168 48.607372,26.688732 
	C65.924316,26.925182 83.245850,26.943550 100.564453,26.834360 
	C103.835373,26.813738 104.831459,27.738855 104.816734,31.034292 
	C104.699142,57.346272 104.698135,83.659248 104.817696,109.971207 
	C104.832741,113.284470 103.822296,114.359512 100.550598,114.143646 
	C96.571098,113.881081 92.561058,114.081467 88.074249,114.081619 
z"/>
<path fill="#EB3F98" opacity="1.000000" stroke="none" 
	d="
M63.542442,90.869659 
	C62.610718,90.878639 62.114876,90.880554 61.619038,90.880348 
	C54.860397,90.877502 51.007683,84.590416 54.392544,78.847466 
	C56.089767,75.967873 59.171631,77.325958 61.672451,77.161133 
	C64.316719,76.986847 67.733124,76.794983 67.444893,80.605377 
	C67.176483,84.153931 70.392570,89.286263 63.542442,90.869659 
z"/>
<path fill="#EB3F98" opacity="1.000000" stroke="none" 
	d="
M87.040970,90.880753 
	C80.786728,90.531952 80.993958,90.510010 80.894958,82.206810 
	C80.841599,77.731346 83.004562,77.032127 86.717979,77.067833 
	C94.333817,77.141083 97.200005,81.299744 94.349106,88.541214 
	C92.987579,91.999603 89.917801,90.527550 87.040970,90.880753 
z"/>
<path fill="#EB3995" opacity="1.000000" stroke="none" 
	d="
M56.651558,70.441513 
	C54.058514,68.260414 53.033260,60.098373 54.700466,58.103100 
	C55.737701,56.861759 64.985573,56.200596 66.196785,57.586853 
	C68.786942,60.551323 67.575195,64.226776 67.400711,67.609131 
	C67.247612,70.576630 64.739861,70.568382 62.551460,70.618744 
	C60.724476,70.660767 58.894550,70.575157 56.651558,70.441513 
z"/>
<path fill="#EB3995" opacity="1.000000" stroke="none" 
	d="
M94.515648,67.295921 
	C91.854347,72.942116 87.212875,70.378181 83.488655,70.249847 
	C80.140244,70.134445 81.060432,66.860718 81.021965,64.683525 
	C80.898094,57.672840 86.057510,54.391758 92.594154,57.203918 
	C94.288681,57.932930 94.516548,59.402760 94.588806,60.893478 
	C94.685310,62.884521 94.595375,64.884598 94.515648,67.295921 
z"/>
<path fill="#EA3894" opacity="1.000000" stroke="none" 
	d="
M67.219154,38.763474 
	C67.447487,39.828228 67.587410,40.481030 67.607452,41.137486 
	C67.883896,50.192722 65.901062,51.816406 56.885952,50.130295 
	C55.157612,49.807041 54.180759,49.032478 54.052414,47.288242 
	C53.991802,46.464462 53.905834,45.619408 54.019123,44.810280 
	C54.370781,42.298599 52.631771,38.503544 55.418781,37.556461 
	C59.051231,36.322090 63.381371,35.528564 67.219154,38.763474 
z"/>
<path fill="#EA3593" opacity="1.000000" stroke="none" 
	d="
M94.362022,42.076881 
	C94.345322,49.451073 89.142860,52.767441 82.823792,49.877876 
	C80.170700,48.664688 80.995270,46.179253 81.074860,44.178352 
	C81.168007,41.836781 79.737541,38.563938 82.555984,37.403728 
	C85.744865,36.091038 89.474014,36.451832 92.847588,37.276226 
	C94.790337,37.750973 94.229568,40.002987 94.362022,42.076881 
z"/>
</svg>