<svg xmlns="http://www.w3.org/2000/svg" viewBox="0 0 77.87 22.12"><g id="Capa_2" data-name="Capa 2"><g id="Capa_1-2" data-name="Capa 1"><path d="M9.14,3.35a5.78,5.78,0,0,1,8.18,0h0A.83.83,0,0,0,18.51,2.2l0,0A7.43,7.43,0,0,0,8,2.18H8A.83.83,0,0,0,9.14,3.35Z"/><path d="M11.48,5.69a2.47,2.47,0,0,1,3.5,0,.83.83,0,0,0,1.17,0,.82.82,0,0,0,0-1.17,4.12,4.12,0,0,0-5.84,0h0a.83.83,0,0,0,1.17,1.17ZM4.13,16.54A.83.83,0,1,1,5,15.71.83.83,0,0,1,4.13,16.54Zm7.45-.83a.83.83,0,1,0,.82-.83A.83.83,0,0,0,11.58,15.71Zm4.13.83a.83.83,0,1,1,.83-.83A.83.83,0,0,1,15.71,16.54Zm2.48-.83a.83.83,0,1,0,.83-.83A.83.83,0,0,0,18.19,15.71Zm3.31,0a.83.83,0,1,0,.82-.83A.83.83,0,0,0,21.5,15.71Z"/><path d="M4.92,2.22a.83.83,0,0,0-1-.56.81.81,0,0,0-.56,1s0,0,0,.06l2.94,8.84H2.48A2.48,2.48,0,0,0,0,14.06v3.3a2.48,2.48,0,0,0,2.48,2.48h.83a.83.83,0,0,0,.82.83H7.44a.83.83,0,0,0,.83-.83h9.92a.83.83,0,0,0,.83.83h3.3a.83.83,0,0,0,.83-.83H24a2.48,2.48,0,0,0,2.48-2.48v-3.3A2.48,2.48,0,0,0,24,11.58H20.17l2.94-8.84a.83.83,0,0,0-1.55-.58s0,0,0,.06l-3.12,9.36H8ZM24,13.23a.83.83,0,0,1,.83.83v3.3a.83.83,0,0,1-.83.83H2.48a.83.83,0,0,1-.83-.83v-3.3a.83.83,0,0,1,.83-.83Z"/><path d="M14.06,7.44a.83.83,0,1,1-.83-.83A.83.83,0,0,1,14.06,7.44Z"/><path d="M68.52,22.12h7a2.42,2.42,0,0,0,2.34-2.49V4.69A2.42,2.42,0,0,0,75.53,2.2h-7a2.42,2.42,0,0,0-2.34,2.49V19.63A2.42,2.42,0,0,0,68.52,22.12ZM67.35,4.69H76.7V19.63H67.35Z"/><path d="M39.06,9.22,37.65,7.81l-4.24,4.24,4.24,4.25,1.41-1.42-1.83-1.83h6.18v-2H37.23Z"/><path d="M47.41,11.05v2h6.17l-1.83,1.83,1.41,1.42,4.25-4.25L53.16,7.81,51.75,9.22l1.83,1.83Z"/></g></g></svg>