<?xml version="1.0" standalone="no"?>
<!DOCTYPE svg PUBLIC "-//W3C//DTD SVG 20010904//EN"
 "http://www.w3.org/TR/2001/REC-SVG-20010904/DTD/svg10.dtd">
<svg version="1.0" xmlns="http://www.w3.org/2000/svg"
 width="2085.000000pt" height="2085.000000pt" viewBox="0 0 2085.000000 2085.000000"
 preserveAspectRatio="xMidYMid meet">

<g transform="translate(0.000000,2085.000000) scale(0.100000,-0.100000)"
fill="#000000" stroke="none">
<path d="M14405 18554 c-319 -14 -806 -73 -987 -120 -150 -38 -239 -98 -306
-203 -59 -93 -77 -171 -70 -304 4 -74 10 -96 42 -161 60 -122 159 -210 279
-248 78 -24 208 -23 328 1 270 55 560 84 864 84 915 1 1772 -253 2529 -750
526 -345 991 -802 1319 -1294 147 -222 314 -533 415 -774 66 -157 151 -406
208 -613 94 -344 101 -359 189 -447 247 -245 672 -143 777 188 45 143 12 346
-129 772 -242 736 -605 1391 -1069 1935 -132 155 -421 442 -574 572 -375 316
-771 573 -1235 799 -651 319 -1272 493 -1950 548 -136 11 -510 20 -630 15z"/>
<path d="M14225 16943 c-96 -8 -329 -45 -430 -68 -201 -46 -299 -114 -371
-260 l-39 -79 0 -125 c0 -108 4 -134 23 -183 50 -123 157 -226 279 -269 81
-28 208 -26 418 7 231 35 582 44 795 20 347 -40 648 -129 977 -286 323 -155
557 -323 823 -589 260 -260 411 -471 565 -786 92 -188 137 -308 221 -590 31
-104 70 -214 86 -243 121 -214 394 -296 618 -185 164 80 260 237 260 424 0
133 -121 551 -241 833 -200 469 -457 846 -828 1217 -674 672 -1501 1065 -2429
1154 -140 14 -605 19 -727 8z"/>
<path d="M2276 16909 c-176 -19 -353 -82 -480 -173 -161 -115 -270 -296 -322
-536 -18 -82 -19 -240 -19 -4910 l0 -4825 28 -100 c75 -274 223 -461 452 -571
110 -54 213 -81 359 -94 77 -8 2485 -10 7791 -8 l7680 3 95 26 c184 52 303
122 422 248 86 92 153 201 208 340 l40 101 0 3225 0 3225 -535 0 -535 0 0
-2873 c0 -2012 -3 -2891 -11 -2932 -26 -143 -97 -228 -223 -268 l-71 -22
-7165 0 -7165 0 -74 23 c-61 19 -83 32 -127 76 -44 44 -57 66 -76 127 l-23 74
0 4240 0 4240 23 75 c32 101 97 168 199 202 l68 23 5093 3 5092 2 0 535 0 535
-5322 -1 c-2928 -1 -5358 -5 -5402 -10z"/>
<path d="M14287 15415 c-253 -32 -347 -66 -447 -161 -104 -99 -145 -209 -138
-366 4 -88 9 -106 42 -174 49 -97 124 -172 223 -221 95 -47 182 -53 390 -28
522 64 940 -83 1295 -454 58 -61 127 -142 152 -180 71 -106 141 -263 201 -445
63 -193 82 -232 138 -294 100 -109 225 -159 374 -150 187 12 330 111 410 284
41 90 44 216 8 359 -82 328 -227 630 -438 910 -83 110 -321 345 -440 434 -339
253 -695 406 -1117 477 -131 22 -510 28 -653 9z"/>
<path d="M14454 13735 c-76 -16 -152 -48 -224 -93 -155 -98 -267 -254 -306
-429 -25 -112 -16 -282 20 -388 71 -209 230 -368 441 -441 73 -26 92 -28 220
-28 125 0 149 3 220 27 112 37 198 90 280 172 82 82 135 169 172 280 22 68 26
98 27 205 1 143 -14 212 -70 326 -138 282 -466 437 -780 369z"/>
<path d="M16081 5333 c-549 -3 -707 -6 -713 -16 -16 -25 -8 -192 12 -272 32
-125 93 -213 200 -285 30 -20 388 -198 795 -395 1291 -624 1237 -600 1365
-611 195 -18 382 92 472 276 77 159 76 302 -2 449 -53 98 -108 149 -389 359
-152 113 -319 240 -371 282 -132 107 -196 147 -277 175 -90 32 -186 45 -298
42 -49 -1 -407 -3 -794 -4z"/>
<path d="M2794 5307 c-60 -32 -570 -411 -757 -562 -175 -142 -241 -220 -287
-341 -27 -73 -37 -198 -21 -276 34 -164 157 -297 321 -349 84 -27 221 -29 305
-5 60 18 362 159 960 449 809 391 1014 492 1071 529 75 47 144 119 177 184 42
85 64 221 52 329 l-7 65 -886 0 -887 -1 -41 -22z"/>
</g>
</svg>
