<?xml version="1.0" encoding="utf-8"?>
<!-- Generator: Adobe Illustrator 25.0.1, SVG Export Plug-In . SVG Version: 6.00 Build 0)  -->
<svg version="1.0" id="katman_1" xmlns="http://www.w3.org/2000/svg" xmlns:xlink="http://www.w3.org/1999/xlink" x="0px" y="0px"
	 viewBox="0 0 560 400" style="enable-background:new 0 0 560 400;" xml:space="preserve">
<style type="text/css">
	.st0{fill:url(#SVGID_1_);}
</style>
<g transform="matrix(.45453 0 0 .45453 30 156.683)">
	<path d="M135.5,189.8H84.8v-72.3H52v72.3H0V3.3h51.9v69.6h32.8V3.3h50.7L135.5,189.8L135.5,189.8z M367.9,190.6
		c51.9,0,94.3-43.2,94.3-95.8c0-53.4-42.4-94.7-94.3-94.7c-52.6,0-79.2,38.2-85.6,53.8c0-23.1-23.1-50.7-49.9-50.7h-86.6v186.6h80.6
		c32.8,0,55.9-28,55.9-52.6C289.6,152.4,315.4,190.6,367.9,190.6L367.9,190.6z M220,114.8c7.5,0,13.5,7.3,13.5,15.6
		c0,8.7-6,16-13.5,16h-25.8v-31.6L220,114.8z M220,44.8c7.5,0,13.5,7.3,13.5,15.6S227.5,76,220,76h-25.8V44.8L220,44.8z M254.1,94.8
		c6-0.4,15.8-7.3,19.5-11.4c-1.4,5-1.4,20.8,0,25.8C269.5,103.1,260.1,95.9,254.1,94.8z M320.6,94.8c0-26.3,21.4-47.5,47.7-47.4
		c26.4,0.2,47.4,21.7,47.1,48.1c-0.4,26-21.4,46.9-47.4,46.9C341.8,142.4,320.6,121.2,320.6,94.8L320.6,94.8z M367.9,132.2
		c20.2,0,37.2-16.6,37.2-37.4s-17-37.2-37.2-37.2c-20.8,0-37.4,16.4-37.4,37.2S347.1,132.2,367.9,132.2z"/>
	
		<linearGradient id="SVGID_1_" gradientUnits="userSpaceOnUse" x1="1041.5187" y1="325.6485" x2="1660.9564" y2="325.6485" gradientTransform="matrix(0.4545 0 0 -0.4545 7.1986 243.317)">
		<stop  offset="0" style="stop-color:#991EEB"/>
		<stop  offset="0.4" style="stop-color:#5822B4"/>
		<stop  offset="0.73" style="stop-color:#5822B4"/>
		<stop  offset="1" style="stop-color:#991EEB"/>
	</linearGradient>
	<path class="st0" d="M733.2,69.3c-1-45.2-33-69.1-72.2-69.1c-21.5,0-40.9,7.2-54.1,21.2c-13.2-14-32.6-21.2-54.1-21.2
		c-39.2,0-71.2,24-72.2,69.2v103.4c0,9.5,7.7,17.1,17.1,17.1h16.2c1.6,0,2.9-1.3,2.9-2.9V69.6c0.7-22.3,16.5-34.1,36-34.1
		s35.3,11.8,36,34.1v103.1c0,9.5,7.7,17.1,17.1,17.1h16.2c1.6,0,2.9-1.3,2.9-2.9V69.5c0.7-22.3,16.5-34.1,36-34.1s35.3,11.8,36,34.1
		v103.1c0,9.5,7.7,17.1,17.1,17.1h16.2c1.6,0,2.9-1.3,2.9-2.9V69.4C733.3,69.5,733.2,69.4,733.2,69.3L733.2,69.3z M1097.9,3.1h-27.5
		c-7.6,0-14.7,3.8-19,10.1l-30.4,45c-4,5.9-12.6,5.9-16.6,0l-30.4-45c-4.2-6.3-11.4-10.1-19-10.1h-27.5c-1.7,0-2.7,1.9-1.8,3.3
		l54.2,80.4c3.9,5.8,3.9,13.4,0,19.2l-54.2,80.4c-1,1.4,0.1,3.3,1.8,3.3H955c7.6,0,14.7-3.8,19-10.1l30.4-45c4-5.9,12.6-5.9,16.6,0
		l30.4,45c4.2,6.3,11.4,10.1,19,10.1h27.5c1.7,0,2.7-1.9,1.8-3.3l-54.3-80.3c-3.9-5.8-3.9-13.4,0-19.2l54.2-80.4
		C1100.6,5.1,1099.6,3.1,1097.9,3.1z M913.3,3.1h-16.2c-8.2,0-15.1,5.8-16.8,13.5C865.9,5.6,847.8,0,828.3,0
		c-47.4,0-85.9,33-85.9,95.3s38.4,95.3,85.9,95.3c19.4,0,37.3-5.5,51.7-16.3c0.8,8.7,8.1,15.6,17.1,15.6h16.2c1.6,0,2.9-1.3,2.9-2.9
		V6C916.1,4.4,914.9,3.1,913.3,3.1z M828.3,155.2c-28.3,0-51.3-20.7-51.3-59.8s23-59.8,51.3-59.8s51.3,20.7,51.3,59.8
		S856.6,155.2,828.3,155.2z"/>
</g>
</svg>
