<svg xmlns="http://www.w3.org/2000/svg" viewBox="0 0 891.98 218.44"><defs><style>.cls-1{fill:#fff;}.cls-2{fill:#cc0076;}</style></defs><g id="Capa_2" data-name="Capa 2"><g id="Capa_1-2" data-name="Capa 1"><path class="cls-1" d="M111.16,100.27H132.5s11.88.62,18.07,15.16c0,0,6.62,15.56-7.51,33.57,0,0-10.29,12.29-27,12.72l-43.91,0H69.65a17.16,17.16,0,0,0-16.34,14c-1.24,7.76,4.06,14,11.85,14h48.6s20.85-.83,36.66-13.33c0,0,25.38-17.2,29-46.07,0,0,8.48-30.94-21-51.62,0,0-11.77-7-21.77-6.76H112.82c-7.8,0-15.13,6.32-16.37,14.12s4.07,14.12,11.87,14.12Z"/><path class="cls-1" d="M107.5,118.21H86.16S74.28,117.58,68.09,103c0,0-6.62-15.56,7.51-33.57,0,0,10.29-12.29,27-12.71H149a17.16,17.16,0,0,0,16.34-14c1.24-7.76-4.06-14-11.85-14H104.9S84.05,29.52,68.24,42c0,0-25.38,17.2-29,46.07,0,0-8.48,30.94,21,51.62,0,0,11.77,7,21.77,6.76h23.83c7.8,0,15.13-6.32,16.37-14.12s-4.07-14.12-11.87-14.12Z"/><path class="cls-1" d="M319,53.19H273.85S260,53.52,254,69.39l-2.63,14.74S249.12,97.74,267,101.89l25,0s9.52-.66,8.46,6.56l-1.25,6.75s-.73,7.55-9.7,7.91l-41.56,0-2.49,14.28,43.16,0s22.45,3,27.24-24.73c0,0,6.2-25.49-16-25.49l-25.38,0s-6.7,0-7-7.4c0,0,.15-11.26,10.5-12.38l38.87,0Z"/><path class="cls-1" d="M390,53.21l-29.35,0c-25.46-.59-29.39,20.11-29.39,20.11L315,166.63l15.67,0,5.05-29.19,33.55,0c29.08,0,30.79-21.38,30.79-21.38L407.6,72C408.73,52.94,390,53.21,390,53.21ZM390.52,82l-5.63,31s-.82,10-14.53,10l-27.71,0s-4.45,1.11-3.33-5.3l6.75-39.15s1.44-11.46,15.27-11.18l20,0S394.7,67.19,390.52,82Z"/><path class="cls-1" d="M597.14,137.64l29.36,0c25.46.59,29.39-20.09,29.39-20.09l16.28-93.38H656.52l-4.78,29.21-33.85,0c-29.07,0-30.77,21.38-30.77,21.38l-7.57,44.17C578.4,137.92,597.14,137.64,597.14,137.64Zm-.54-28.78,5.62-31s.86-10.09,14.55-10.07l27.68,0s4.46-1.12,3.34,5.33l-6.73,39.15s-1.46,11.45-15.29,11.15l-19.94,0S592.4,123.68,596.6,108.86Z"/><path class="cls-1" d="M560.44,53.32l-29.09,0s-24.61-2-29.08,21.78l-7,41.68S491,137.44,514.8,137.6l51.17,0,2.53-14.33-49.77,0s-9.51-.65-7-12.12l1.42-8.94,59.27,0,4.52-28.79S580.86,55,560.44,53.32ZM515.25,89.94l2.12-12.88s1.13-10.62,21.52-9.49h12.86s9.79-.83,9.22,9.25l-1.27,8.06h0a5.71,5.71,0,0,1-6,5.07Z"/><path class="cls-1" d="M475.55,53.32l-29.09,0s-24.61-2-29.08,21.78l-7,41.68s-4.22,20.68,19.56,20.84l51.17,0,2.52-14.33-49.76,0s-9.51-.65-7-12.12l1.42-8.94,59.27,0L492,73.47S496,55,475.55,53.32ZM430.36,89.94l2.12-12.88s1.13-10.62,21.52-9.49h12.86s9.78-.83,9.22,9.25l-1.27,8.06h0a5.71,5.71,0,0,1-6,5.07Z"/><path class="cls-1" d="M677.24,53.13l15,0L682,111s-4.14,12.24,10.47,12.21l27.6-.08s3.94,1.67,5.63-7.38l11-62.74,15.54,0L726.67,195.4l-15,0L720.57,144s2.21-6.44-3.81-6.43l-29.24.08s-27.42,1.56-21.68-23.28Z"/><path class="cls-1" d="M167.12,218.44H51.32A51.38,51.38,0,0,1,0,167.12V51.32A51.38,51.38,0,0,1,51.32,0h115.8a51.38,51.38,0,0,1,51.32,51.32v115.8A51.38,51.38,0,0,1,167.12,218.44ZM51.32,9.08A42.29,42.29,0,0,0,9.08,51.32v115.8a42.29,42.29,0,0,0,42.24,42.24h115.8a42.29,42.29,0,0,0,42.24-42.24V51.32A42.29,42.29,0,0,0,167.12,9.08Z"/><g id="TV_Footer" data-name="TV Footer"><path class="cls-2" d="M766.5,46.27H733.39L737,31a8.9,8.9,0,0,1,8.65-6.85h74.22l4.57,22.1H788.59l-15.37,87H765a11.65,11.65,0,0,1-11.48-13.68Z"/><path class="cls-2" d="M834.84,92.93,819,121.09l-13.74-63H827ZM892,46.27l-48.8,87H821.4l42.41-75.51a22.66,22.66,0,0,1,19.71-11.5Z"/></g></g></g></svg>