<?xml version="1.0" standalone="yes"?>
<svg xmlns="http://www.w3.org/2000/svg" width="2085" height="2085">
<path style="fill:#000; stroke:none;" d="M374 1039L374 1722L276 1722C258.488 1722 238.754 1719.66 222 1725.7C191.35 1736.76 184.279 1777.78 205.184 1800.99C226.993 1825.19 264.866 1818 294 1818L519 1818L1440 1818L1693 1818C1726.78 1818 1767.26 1825.17 1786.69 1790C1800.79 1764.48 1784.43 1733.26 1758 1724.67C1741.87 1719.43 1722.76 1722 1706 1722L1610 1722L1610 1040C1644.76 1042.74 1679.03 1040.3 1710 1022.57C1783.07 980.753 1806.11 881.288 1757.56 812C1739.43 786.13 1712.95 767.517 1689 747.411C1651.7 716.1 1614.43 684.742 1577 653.586C1457.69 554.287 1339.31 453.886 1220 354.586C1194.6 333.445 1169.38 312.092 1144 290.92C1101.98 255.863 1058.36 222.42 1001 221.015C903.709 218.631 836.599 292.248 767 350.247C647.448 449.874 527.355 548.921 407 647.576C368.881 678.822 330.865 710.199 293 741.753C269.931 760.977 244.121 779.395 226.428 804C180.966 867.224 196.869 965.623 261 1010.56C294.384 1033.95 334.352 1039 374 1039z"/>
<path style="fill:#fff; stroke:none;" d="M984 315.425C948.003 320.325 922.898 344.199 896 366.586C858.09 398.139 819.932 429.392 782 460.919C676.244 548.818 570.011 636.157 464 723.75C429.684 752.104 395.197 780.255 361 808.753C345.064 822.033 327.82 834.488 313.001 849.015C277.998 883.328 299.875 940.4 348 946.546C360.381 948.127 380.427 933.862 390 926.845C421.027 904.101 450.573 879.193 481 855.651C602.98 761.269 724.375 665.908 845 569.801C878.155 543.385 911.692 517.435 945 491.211C961.613 478.131 979.419 463.134 1002 468.503C1020.96 473.011 1036.06 488.789 1051 500.349C1082.2 524.5 1112.9 549.303 1144 573.576C1254.3 659.647 1364.37 746.077 1474 833.003C1511.21 862.507 1548.38 892.145 1586 921.119C1604.52 935.381 1623.89 951.667 1649 945.764C1680.71 938.307 1698.51 902.172 1683.11 873C1675.37 858.344 1661.46 848.174 1649 837.754L1592 790.08C1447.44 669.467 1303.2 548.451 1159 427.411C1129.7 402.818 1100.11 378.547 1071 353.728C1046.79 333.084 1018.08 310.786 984 315.425M989 578.562C976.346 581.706 963.027 596.592 953 604.6C927.464 624.997 901.844 645.344 876 665.349C780.481 739.287 685.395 814.033 591 889.4C562.205 912.39 532.795 934.61 504 957.6C492.672 966.645 475.354 975.5 470.598 990C466.37 1002.89 469 1019.56 469 1033L469 1119L469 1408L469 1639L469 1696C469 1703.2 467.483 1713.18 473.228 1718.72C478.007 1723.33 485.937 1722 492 1722L537 1722L721 1722L1264 1722L1430 1722L1481 1722C1488.74 1722 1498.52 1723.58 1506 1721.43C1515.12 1718.8 1515 1708.71 1515 1701L1515 1642L1515 1390L1515 1103L1515 1024C1515 1012.17 1517.48 996.915 1512 986C1506.35 974.747 1491.74 966.62 1482 959.119C1461.21 943.105 1440.69 926.722 1420 910.576C1345.14 852.158 1270.86 792.993 1196 734.576C1145.14 694.891 1094.68 654.694 1044 614.789C1031.98 605.329 1020.1 595.698 1008 586.349C1002.55 582.143 996.452 576.71 989 578.562z"/>
<path style="fill:#000; stroke:none;" d="M990 964.424C955.234 968.989 920.602 969.852 886 977.211C808.566 993.678 734.511 1027.72 672 1076.42C649.55 1093.92 618.822 1113.98 605.81 1140C592.301 1167.02 611.155 1201 640 1206.54C668.329 1211.97 683.512 1193.32 703 1176.42C727.079 1155.55 752.291 1136.67 780 1120.85C863.483 1073.2 962.197 1050.79 1058 1062.29C1132.69 1071.25 1206.18 1095.68 1268 1139.42C1284.6 1151.17 1300.87 1163.56 1316 1177.17C1334.91 1194.18 1352.23 1212.78 1380 1206.79C1410.2 1200.27 1424.92 1166.03 1411.74 1139C1405.95 1127.11 1395.66 1118.53 1386 1109.83C1369.74 1095.2 1352.8 1081.45 1335 1068.71C1258.75 1014.13 1172.11 979.157 1079 967.715C1050.56 964.22 1018.59 960.671 990 964.424M1004 1123.43C981.988 1126.06 960.038 1125.45 938 1129.42C874.084 1140.95 811.556 1168.59 761 1209.61C746.862 1221.08 728.658 1234.48 720.273 1251C706.611 1277.92 722.171 1312.62 752 1319.33C778.998 1325.42 796.062 1307.62 815 1291.43C828.961 1279.49 844.055 1268.57 860 1259.43C917.009 1226.73 984.02 1213.74 1049 1222.28C1095.78 1228.43 1141.57 1245.96 1180 1273.43C1204.47 1290.92 1229.35 1325.86 1263 1320.56C1294.78 1315.56 1312.17 1280.81 1298.68 1252C1290.64 1234.83 1271.58 1221.13 1257 1209.66C1203.14 1167.29 1140.84 1139.1 1073 1128.58C1051.3 1125.21 1025.89 1120.81 1004 1123.43M1005 1275.42C988.256 1277.62 971.661 1277.74 955 1281.42C914.413 1290.39 877.206 1309.91 846 1337.29C820.412 1359.73 811.737 1402.26 847 1421.69C880.408 1440.09 902.277 1413.51 928 1396.35C952.148 1380.25 982.551 1369.07 1012 1371.09C1038.65 1372.91 1064.38 1379.68 1087 1394.22C1110.21 1409.13 1126.53 1432.09 1157 1427.7C1195.87 1422.1 1207.35 1371.02 1180.83 1345.42C1144.59 1310.44 1099.81 1286.91 1050 1278.75C1035.92 1276.45 1019.18 1273.56 1005 1275.42M1004 1442.42C977.464 1445.95 953.888 1460.26 943.453 1486C924.075 1533.8 963.366 1590.01 1016 1583.71C1049.52 1579.71 1076.53 1554.14 1079.83 1520C1083.84 1478.59 1047.3 1436.67 1004 1442.42z"/>
</svg>
