<?xml version="1.0" standalone="no"?>
<!DOCTYPE svg PUBLIC "-//W3C//DTD SVG 20010904//EN"
 "http://www.w3.org/TR/2001/REC-SVG-20010904/DTD/svg10.dtd">
<svg version="1.0" xmlns="http://www.w3.org/2000/svg"
 width="2085.000000pt" height="2084.000000pt" viewBox="0 0 2085.000000 2084.000000"
 preserveAspectRatio="xMidYMid meet">

<g transform="translate(0.000000,2084.000000) scale(0.100000,-0.100000)"
fill="#000000" stroke="none">
<path d="M14115 19259 c-249 -19 -649 -75 -773 -109 -87 -24 -178 -68 -225
-110 -19 -16 -54 -59 -77 -95 -49 -75 -69 -152 -70 -267 -1 -229 168 -424 399
-459 79 -12 97 -10 299 27 362 66 805 91 1150 65 857 -65 1626 -338 2322 -825
289 -203 637 -515 857 -770 465 -541 777 -1142 973 -1876 56 -212 68 -248 96
-296 89 -152 232 -234 409 -234 294 0 506 245 465 538 -17 121 -87 379 -165
612 -243 716 -598 1348 -1061 1890 -623 729 -1572 1349 -2554 1668 -393 128
-799 208 -1234 242 -149 12 -650 11 -811 -1z"/>
<path d="M14140 17659 c-145 -14 -392 -57 -489 -85 -219 -64 -341 -224 -341
-450 0 -253 177 -450 423 -470 51 -4 123 2 247 20 236 35 368 46 535 46 1041
0 2034 -568 2574 -1472 129 -217 232 -468 337 -826 53 -181 80 -236 149 -307
190 -196 506 -188 690 17 108 120 139 271 95 466 -177 797 -609 1528 -1218
2063 -632 555 -1322 870 -2142 980 -178 23 -695 35 -860 18z"/>
<path d="M3541 17549 c-706 -74 -1222 -528 -1360 -1194 -12 -55 -26 -174 -31
-265 -7 -111 -10 -1863 -7 -5315 l3 -5150 21 -111 c46 -231 117 -409 240 -594
239 -359 627 -587 1088 -640 58 -6 620 -10 1558 -10 l1468 0 -37 -67 c-21 -38
-257 -449 -525 -914 -268 -465 -497 -869 -508 -897 -85 -214 -23 -407 156
-497 118 -59 -216 -55 4763 -55 3049 0 4590 4 4619 11 121 28 230 112 279 217
22 46 27 75 30 152 5 131 -15 184 -148 400 -212 345 -940 1618 -940 1645 0 3
645 5 1434 5 1475 0 1539 2 1744 41 556 107 926 456 1121 1055 28 87 56 167
61 176 7 12 10 1300 10 3748 l0 3730 -385 0 -385 0 0 -3055 0 -3055 -7450 0
-7450 0 3 4603 c2 4397 3 4605 21 4676 41 171 103 289 202 386 112 110 272
181 459 204 64 8 1364 11 4473 11 l4382 0 0 385 0 385 -4412 -1 c-2449 -1
-4450 -6 -4497 -10z m14274 -11536 c-12 -228 -27 -379 -46 -450 -66 -258 -274
-450 -552 -507 -69 -15 -714 -16 -6829 -16 -4312 1 -6780 4 -6828 10 -174 23
-309 89 -432 210 -72 71 -95 102 -128 171 -59 125 -81 219 -87 389 -3 80 -2
180 1 223 l8 77 7449 0 7450 0 -6 -107z m-4813 -1752 l256 -6 43 -30 c35 -25
68 -74 191 -285 264 -450 736 -1274 743 -1297 l6 -23 -3886 0 -3886 0 16 29
c8 16 117 207 241 423 125 216 321 557 436 758 116 201 217 374 226 384 10 10
35 27 57 37 39 18 138 19 2670 18 1447 -1 2746 -4 2887 -8z"/>
<path d="M14277 16139 c-296 -29 -424 -73 -525 -183 -92 -99 -127 -205 -120
-354 5 -82 10 -102 43 -170 70 -141 203 -241 348 -261 43 -6 102 -6 160 0 51
6 130 14 177 19 362 40 722 -57 1016 -272 96 -71 289 -268 352 -361 77 -112
144 -259 213 -467 83 -253 134 -322 295 -398 55 -25 69 -27 184 -27 119 0 128
1 190 31 92 45 144 85 195 155 116 157 113 338 -10 689 -364 1035 -1419 1705
-2518 1599z"/>
<path d="M14400 14456 c-252 -54 -442 -220 -527 -461 -25 -73 -28 -93 -28
-220 0 -128 3 -148 29 -229 76 -231 264 -406 499 -461 90 -21 247 -19 341 5
196 50 363 184 449 360 99 203 101 429 6 625 -89 182 -253 319 -445 370 -82
23 -244 28 -324 11z"/>
</g>
</svg>
