<svg xmlns="http://www.w3.org/2000/svg" viewBox="0 0 146.24 138.11"><defs><style>.cls-1{fill:#2a68a8;}</style></defs><g id="Capa_2" data-name="Capa 2"><g id="Capa_1-2" data-name="Capa 1"><path class="cls-1" d="M145.28,91a5.71,5.71,0,0,0-4.73-2.47h-.81V7.84A7.85,7.85,0,0,0,131.9,0H14.34A7.85,7.85,0,0,0,6.5,7.84V88.5H5.69A5.71,5.71,0,0,0,1,91a5.5,5.5,0,0,0-.59,5.08,21.79,21.79,0,0,0,20.34,13.63h47.5a14.75,14.75,0,0,1-.45-3.61v-1.61H20.71c-6.87,0-13.09-4.14-15.39-10.07V94l-.05-.11a.49.49,0,0,1,.42-.2H58.53v4a2.61,2.61,0,0,0,2.61,2.61h6.62V88.5h-56V7.84a2.61,2.61,0,0,1,2.61-2.61H131.9a2.62,2.62,0,0,1,2.62,2.61V88.5H77.93v11.85H85.1a2.61,2.61,0,0,0,2.61-2.61v-4h52.84c.25,0,.37.13.45.45a16.52,16.52,0,0,1-15.46,10.29H77.93v1.62a4.66,4.66,0,0,0,1.71,3.6h45.9a21.78,21.78,0,0,0,20.34-13.63A5.53,5.53,0,0,0,145.28,91Z"/><path class="cls-1" d="M89.3,112.76H82.68a7,7,0,0,1-7.08-7v-23a6.2,6.2,0,1,0-5.76-.26v23.26a12.79,12.79,0,0,0,12.84,12.71H89.3a7,7,0,0,1,7.08,7v9.76a2.88,2.88,0,0,0,5.76,0v-9.76A12.79,12.79,0,0,0,89.3,112.76Z"/><path class="cls-1" d="M108.08,51.84a4.16,4.16,0,0,0-.26-6c-.74-.71-1.48-1.42-2.26-2.08-12-10.19-25.88-13.85-41.36-11.12A47,47,0,0,0,40.72,44.26c-1.26,1.12-2.62,2.19-3.07,4v1.54c.07.16.16.32.22.49A4,4,0,0,0,40.74,53,4.2,4.2,0,0,0,45,51.69a39.38,39.38,0,0,1,8-6.1,40.19,40.19,0,0,1,25.19-5.22A39.58,39.58,0,0,1,94.72,46.1a45.16,45.16,0,0,1,7.4,5.82A4.15,4.15,0,0,0,108.08,51.84Z"/><path class="cls-1" d="M55.85,50.54a30.4,30.4,0,0,0-7.23,5.68,4.14,4.14,0,0,0,5.09,6.33,12.14,12.14,0,0,0,2-1.55,26.39,26.39,0,0,1,17.87-6.87l1.43.08a26,26,0,0,1,11.54,3.38A34.2,34.2,0,0,1,92.29,62a4.16,4.16,0,0,0,5.63-6.12,34.91,34.91,0,0,0-42.07-5.31Z"/><path class="cls-1" d="M77.55,68.17A15,15,0,0,1,83,71.54a4.15,4.15,0,0,0,5.55-6.17,21.22,21.22,0,0,0-15-6.21,21.47,21.47,0,0,0-15,6.1,4.16,4.16,0,0,0,3.45,7.18,5.57,5.57,0,0,0,2.91-1.67A12.81,12.81,0,0,1,77.55,68.17Z"/></g></g></svg>