<svg xmlns="http://www.w3.org/2000/svg" viewBox="0 0 111.39 141.77"><defs><style>.cls-1{fill:#CC0076;}</style></defs><g id="Capa_2" data-name="Capa 2"><g id="Capa_1-2" data-name="Capa 1"><path class="cls-1" d="M86.35,63.54a3.66,3.66,0,0,0-.23-5.27c-.65-.63-1.3-1.25-2-1.83C73.55,47.49,61.4,44.27,47.8,46.67A41.29,41.29,0,0,0,27.18,56.88c-1.11,1-2.31,1.92-2.7,3.47V61.7a3.3,3.3,0,0,1,.19.43,3.55,3.55,0,0,0,2.53,2.38,3.67,3.67,0,0,0,3.74-1.11,34.7,34.7,0,0,1,7-5.35,35.36,35.36,0,0,1,22.13-4.59,35,35,0,0,1,14.54,5,40.58,40.58,0,0,1,6.5,5.12A3.65,3.65,0,0,0,86.35,63.54Z"/><path class="cls-1" d="M40.47,62.4a26.47,26.47,0,0,0-6.35,5A3.54,3.54,0,0,0,34.06,72a3.58,3.58,0,0,0,4.53.94,10.74,10.74,0,0,0,1.73-1.37,23.17,23.17,0,0,1,15.69-6l1.25.07a22.88,22.88,0,0,1,10.14,3,30.12,30.12,0,0,1,5.08,3.84,3.65,3.65,0,0,0,4.94-5.37A30.66,30.66,0,0,0,40.47,62.4Z"/><path class="cls-1" d="M59.53,77.89a13.14,13.14,0,0,1,4.75,3,3.64,3.64,0,0,0,4.87-5.41A18.59,18.59,0,0,0,56,70a18.82,18.82,0,0,0-13.2,5.36,3.67,3.67,0,0,0-.85,4.22,3.64,3.64,0,0,0,3.87,2.08,4.9,4.9,0,0,0,2.56-1.46A11.24,11.24,0,0,1,59.53,77.89Z"/><path class="cls-1" d="M45.1,104.26H22.66a5.78,5.78,0,0,1-5.73-5.81V52.58a2.53,2.53,0,0,0-5.06,0V98.45a10.84,10.84,0,0,0,10.79,10.87H45.1a2.53,2.53,0,0,0,0-5.06Z"/><path class="cls-1" d="M97,50a2.54,2.54,0,0,0-2.53,2.53V98.45a5.77,5.77,0,0,1-5.72,5.8H66.29a2.54,2.54,0,0,0,0,5.07H88.73A10.85,10.85,0,0,0,99.52,98.44V52.58A2.55,2.55,0,0,0,97,50Z"/><path class="cls-1" d="M110.44,42.26,60.3,1.86A6.59,6.59,0,0,0,55.7,0h0a6.6,6.6,0,0,0-4.61,1.86L.94,42.26a2.54,2.54,0,0,0,3.18,4L54.36,5.72l.21-.19a1.58,1.58,0,0,1,1.12-.47h0a1.58,1.58,0,0,1,1.12.47L107.27,46.2a2.48,2.48,0,0,0,1.58.56,2.53,2.53,0,0,0,1.59-4.5Z"/><path class="cls-1" d="M70.26,119.5H64.45a6.17,6.17,0,0,1-6.22-6.11V93.19A5.44,5.44,0,1,0,53.16,93v20.43a11.25,11.25,0,0,0,11.29,11.17h5.81a6.16,6.16,0,0,1,6.22,6.1v8.57a2.53,2.53,0,1,0,5.06,0v-8.57A11.23,11.23,0,0,0,70.26,119.5Z"/></g></g></svg>