<svg version="1.1" id="Layer_1" xmlns="http://www.w3.org/2000/svg" xmlns:xlink="http://www.w3.org/1999/xlink" x="0px" y="0px"
	 width="100%" viewBox="0 0 146 140" enable-background="new 0 0 146 140" xml:space="preserve">
<path fill="#FFFEFE" opacity="1.000000" stroke="none" 
	d="
M87.000000,141.000000 
	C58.024929,141.000000 29.549858,141.000000 1.037393,141.000000 
	C1.037393,94.399109 1.037393,47.798176 1.037393,1.098622 
	C49.558170,1.098622 98.116608,1.098622 146.837524,1.098622 
	C146.837524,47.666210 146.837524,94.333054 146.837524,141.000000 
	C127.131897,141.000000 107.315948,141.000000 87.000000,141.000000 
M53.152843,96.411751 
	C60.501099,101.351776 68.556709,103.178688 77.345169,102.104027 
	C91.277412,100.400391 100.813507,92.601135 105.662323,79.910469 
	C110.771088,66.539421 108.164215,54.005302 98.245033,43.361122 
	C97.480240,42.540432 96.042656,42.346703 93.700600,41.336605 
	C94.850456,44.025692 95.381744,45.268177 95.900452,46.481258 
	C89.762390,48.558685 89.504509,43.301258 87.005188,40.186939 
	C89.191643,40.372898 90.902382,40.518398 92.613129,40.663898 
	C92.784317,40.181961 92.955513,39.700024 93.126701,39.218086 
	C91.747665,38.242168 90.471840,37.054306 88.973000,36.324375 
	C78.432930,31.191353 67.662590,30.915068 57.260540,36.253437 
	C33.406868,48.495232 31.363487,80.579254 53.152843,96.411751 
M29.793198,77.554024 
	C26.999559,70.793701 26.873970,64.061592 29.819283,57.283566 
	C31.939251,52.404892 33.901787,47.457703 35.926292,42.537682 
	C38.247555,36.896473 42.449162,33.031395 47.837547,30.524410 
	C52.504951,28.352863 57.410805,26.698948 62.116745,24.603918 
	C69.353302,21.382282 76.493820,21.318144 83.731537,24.559929 
	C87.826797,26.394205 91.993744,28.073912 96.167328,29.724812 
	C97.559875,30.275646 99.073311,30.520891 100.531487,30.905830 
	C100.788887,30.429316 101.046288,29.952803 101.303688,29.476288 
	C100.194618,28.613995 99.203003,27.484432 97.955849,26.936325 
	C92.934372,24.729441 87.738724,22.899448 82.806198,20.518436 
	C80.616280,19.461330 78.646011,17.645100 77.027458,15.781406 
	C74.733849,13.140406 70.892525,12.485731 69.516243,15.459860 
	C67.774658,19.223389 64.562103,20.014244 61.434395,21.330261 
	C56.377995,23.457796 51.362610,25.709179 46.201790,27.548866 
	C44.210960,28.258545 41.821026,28.360657 39.699272,28.082026 
	C35.569439,27.539690 32.802414,30.134857 33.692280,34.147770 
	C34.748409,38.910469 25.828239,60.721184 21.775702,63.285004 
	C18.484261,65.367317 17.767597,69.485970 20.934629,70.921120 
	C24.571974,72.569397 25.337645,75.566078 26.595461,78.531670 
	C28.607534,83.275589 30.493982,88.073486 32.557083,92.794571 
	C33.052944,93.929283 34.034134,94.851898 34.792126,95.872055 
	C35.433083,95.560341 36.074043,95.248627 36.715000,94.936913 
	C34.497242,89.388496 32.279484,83.840088 29.793198,77.554024 
M98.703156,104.249741 
	C92.876373,106.669388 87.188560,109.554710 81.175224,111.349197 
	C76.986649,112.599136 71.978279,113.649071 67.994156,112.502266 
	C59.907185,110.174484 52.245575,106.345047 44.469875,102.992531 
	C43.579601,102.608681 43.255363,100.953575 42.362778,100.525032 
	C40.349068,99.558235 38.049908,98.287308 36.055481,98.553444 
	C35.039410,98.689026 33.524414,102.053139 33.832424,103.649689 
	C34.419037,106.690323 37.031181,107.530014 40.093292,106.736626 
	C43.130730,105.949623 66.457115,114.752548 68.186371,117.290718 
	C68.647385,117.967377 68.769760,118.906807 69.300850,119.498154 
	C71.646477,122.109840 73.962769,122.002075 76.580528,119.614052 
	C78.896980,117.500893 81.351364,115.336555 84.127098,113.972862 
	C89.332428,111.415543 94.758057,109.267181 100.212013,107.277542 
	C102.038765,106.611130 104.327591,107.282066 106.230255,106.734169 
	C108.360260,106.120811 110.839996,105.240562 112.076630,103.635796 
	C112.688103,102.842293 111.074303,98.788109 110.071121,98.623474 
	C108.085876,98.297668 105.691551,99.386330 103.720299,100.389351 
	C102.097626,101.214989 100.841705,102.761421 98.703156,104.249741 
M114.426102,53.134968 
	C119.485329,62.643448 119.528069,72.122284 114.528152,81.714081 
	C112.920456,84.798264 111.710686,88.110565 110.564133,91.403893 
	C110.126617,92.660614 110.376541,94.156670 110.313179,95.543648 
	C110.791962,95.648384 111.270752,95.753120 111.749535,95.857857 
	C112.487968,94.471466 113.337440,93.131851 113.944748,91.690224 
	C116.075005,86.633461 117.949097,81.460022 120.288185,76.504456 
	C121.183388,74.607864 122.855530,72.901436 124.549606,71.596413 
	C127.761787,69.121941 127.735474,65.840805 124.500320,63.368759 
	C122.804085,62.072628 121.135941,60.346081 120.260323,58.443348 
	C117.621010,52.708046 115.204590,46.852856 113.069252,40.912136 
	C112.301964,38.777466 112.885971,36.185810 112.294006,33.950840 
	C111.764305,31.950943 110.863731,29.142338 109.390182,28.562475 
	C108.003891,28.016953 104.664482,29.458696 104.009911,30.871759 
	C103.363106,32.268059 104.722427,34.877766 105.716896,36.669193 
	C106.683723,38.410839 108.684341,39.601658 109.557480,41.367405 
	C111.321266,44.934311 112.628609,48.726929 114.426102,53.134968 
z"/>
<path fill="#EB3D97" opacity="1.000000" stroke="none" 
	d="
M52.871429,96.187500 
	C31.363487,80.579254 33.406868,48.495232 57.260540,36.253437 
	C67.662590,30.915068 78.432930,31.191353 88.973000,36.324375 
	C90.471840,37.054306 91.747665,38.242168 93.126701,39.218086 
	C92.955513,39.700024 92.784317,40.181961 92.613129,40.663898 
	C90.902382,40.518398 89.191643,40.372898 87.005188,40.186939 
	C89.504509,43.301258 89.762390,48.558685 95.900452,46.481258 
	C95.381744,45.268177 94.850456,44.025692 93.700600,41.336605 
	C96.042656,42.346703 97.480240,42.540432 98.245033,43.361122 
	C108.164215,54.005302 110.771088,66.539421 105.662323,79.910469 
	C100.813507,92.601135 91.277412,100.400391 77.345169,102.104027 
	C68.556709,103.178688 60.501099,101.351776 52.871429,96.187500 
M80.625877,65.891380 
	C84.229828,65.891380 87.833771,65.891380 91.652847,65.891380 
	C91.430290,63.771416 91.263260,62.295261 91.122032,60.816643 
	C90.119453,50.319893 89.857727,50.065979 79.704460,50.127434 
	C78.233704,50.136337 76.763565,50.249245 75.498199,50.304993 
	C74.798363,52.142544 74.216843,53.669426 73.635323,55.196304 
	C73.179657,55.179218 72.723984,55.162132 72.268318,55.145046 
	C71.683502,53.584995 71.098686,52.024944 70.511848,50.466900 
	C56.668900,48.978210 54.843258,50.705864 54.700634,65.512726 
	C60.089211,65.512726 65.469986,65.512726 70.184616,65.512726 
	C71.242409,62.994106 72.068428,61.027340 72.894447,59.060577 
	C73.861153,61.088959 74.827866,63.117340 76.065170,65.713501 
	C76.748703,65.747063 78.216805,65.819160 80.625877,65.891380 
M68.275383,84.873474 
	C69.236832,84.073265 70.971008,83.325180 71.029091,82.464043 
	C71.316109,78.208572 71.159737,73.923203 71.159737,69.466049 
	C65.259026,69.466049 59.908169,69.466049 54.355556,69.466049 
	C54.533863,70.981827 54.683201,72.122337 54.800236,73.266151 
	C55.988598,84.880318 55.987122,84.880470 68.275383,84.873474 
M75.136505,69.861603 
	C75.136505,74.753838 75.136505,79.646072 75.136505,84.468285 
	C89.337746,86.012863 91.406021,84.027611 91.235031,69.274368 
	C86.118263,69.274368 80.994629,69.274368 75.136505,69.861603 
M104.191269,61.324970 
	C101.958145,50.511627 100.486473,49.175724 92.435600,50.677414 
	C93.388489,55.652218 94.340446,60.622196 95.308266,65.674957 
	C98.511070,65.674957 101.434479,65.674957 104.672813,65.674957 
	C104.546646,64.327019 104.443779,63.228073 104.191269,61.324970 
M41.324581,63.749329 
	C43.606018,68.539497 47.511864,64.608948 50.624203,65.946190 
	C51.669838,60.537117 52.629349,55.573586 53.589710,50.605652 
	C46.517956,49.479675 45.911419,49.724560 43.498360,55.833664 
	C42.597908,58.113323 42.146107,60.570206 41.324581,63.749329 
M53.647842,83.638161 
	C52.624386,78.863899 51.600929,74.089638 50.586250,69.356339 
	C47.356110,69.356339 44.437672,69.356339 40.882748,69.356339 
	C41.736801,72.733467 42.232849,75.819519 43.301323,78.692696 
	C45.744911,85.263573 46.373310,85.507599 53.647842,83.638161 
M93.359344,79.668900 
	C93.006645,81.246773 92.653946,82.824646 92.308937,84.368111 
	C100.554016,87.507324 103.594200,80.653656 104.461182,69.376709 
	C101.385674,69.376709 98.328331,69.376709 95.138809,69.376709 
	C94.619728,72.715462 94.139908,75.801697 93.359344,79.668900 
M86.014061,44.668129 
	C83.275841,40.790962 80.596382,36.833370 75.143532,36.354950 
	C75.143532,39.963257 75.143532,43.213455 75.143532,46.900513 
	C78.598824,46.900513 81.730934,46.974377 84.852859,46.829308 
	C85.386040,46.804535 85.875725,45.843571 86.014061,44.668129 
M64.096024,39.523232 
	C62.397728,41.682823 60.699429,43.842419 58.506611,46.630859 
	C63.240612,46.630859 66.942223,46.630859 70.787651,46.630859 
	C70.787651,43.019489 70.787651,39.692757 70.787651,35.569237 
	C68.311714,36.959698 66.471870,37.992931 64.096024,39.523232 
M67.788963,97.980362 
	C68.804817,98.195549 69.820663,98.410744 70.821594,98.622772 
	C70.821594,94.952591 70.821594,91.713844 70.821594,88.458473 
	C66.772568,88.458473 63.101013,88.458473 57.747761,88.458473 
	C61.557796,92.198631 64.329369,94.919380 67.788963,97.980362 
M86.007744,90.341866 
	C85.706970,89.597534 85.437492,88.223312 85.100571,88.206566 
	C81.828873,88.043999 78.545883,88.108864 75.046463,88.108864 
	C75.046463,91.974136 75.046463,95.242599 75.046463,98.842087 
	C80.172356,98.040894 83.032852,94.701805 86.007744,90.341866 
M50.586334,89.946579 
	C53.166752,91.922981 55.747166,93.899391 58.327583,95.875793 
	C58.054195,93.216400 57.181534,91.290756 56.046307,89.534866 
	C54.602310,87.301392 51.679169,87.332916 50.586334,89.946579 
M49.835258,46.054035 
	C55.051556,47.843079 55.051556,47.843079 57.851009,39.457352 
	C55.292286,41.461735 52.733562,43.466122 49.835258,46.054035 
M94.853699,90.482269 
	C95.355919,89.901917 95.858131,89.321564 96.492500,88.588509 
	C90.220734,87.650764 89.773071,87.990944 87.482758,95.998199 
	C90.275871,93.947151 92.312088,92.451912 94.853699,90.482269 
z"/>
<path fill="#EC429A" opacity="1.000000" stroke="none" 
	d="
M29.927464,77.922852 
	C32.279484,83.840088 34.497242,89.388496 36.715000,94.936913 
	C36.074043,95.248627 35.433083,95.560341 34.792126,95.872055 
	C34.034134,94.851898 33.052944,93.929283 32.557083,92.794571 
	C30.493982,88.073486 28.607534,83.275589 26.595461,78.531670 
	C25.337645,75.566078 24.571974,72.569397 20.934629,70.921120 
	C17.767597,69.485970 18.484261,65.367317 21.775702,63.285004 
	C25.828239,60.721184 34.748409,38.910469 33.692280,34.147770 
	C32.802414,30.134857 35.569439,27.539690 39.699272,28.082026 
	C41.821026,28.360657 44.210960,28.258545 46.201790,27.548866 
	C51.362610,25.709179 56.377995,23.457796 61.434395,21.330261 
	C64.562103,20.014244 67.774658,19.223389 69.516243,15.459860 
	C70.892525,12.485731 74.733849,13.140406 77.027458,15.781406 
	C78.646011,17.645100 80.616280,19.461330 82.806198,20.518436 
	C87.738724,22.899448 92.934372,24.729441 97.955849,26.936325 
	C99.203003,27.484432 100.194618,28.613995 101.303688,29.476288 
	C101.046288,29.952803 100.788887,30.429316 100.531487,30.905830 
	C99.073311,30.520891 97.559875,30.275646 96.167328,29.724812 
	C91.993744,28.073912 87.826797,26.394205 83.731537,24.559929 
	C76.493820,21.318144 69.353302,21.382282 62.116745,24.603918 
	C57.410805,26.698948 52.504951,28.352863 47.837547,30.524410 
	C42.449162,33.031395 38.247555,36.896473 35.926292,42.537682 
	C33.901787,47.457703 31.939251,52.404892 29.819283,57.283566 
	C26.873970,64.061592 26.999559,70.793701 29.927464,77.922852 
z"/>
<path fill="#EC439B" opacity="1.000000" stroke="none" 
	d="
M99.063202,104.119080 
	C100.841705,102.761421 102.097626,101.214989 103.720299,100.389351 
	C105.691551,99.386330 108.085876,98.297668 110.071121,98.623474 
	C111.074303,98.788109 112.688103,102.842293 112.076630,103.635796 
	C110.839996,105.240562 108.360260,106.120811 106.230255,106.734169 
	C104.327591,107.282066 102.038765,106.611130 100.212013,107.277542 
	C94.758057,109.267181 89.332428,111.415543 84.127098,113.972862 
	C81.351364,115.336555 78.896980,117.500893 76.580528,119.614052 
	C73.962769,122.002075 71.646477,122.109840 69.300850,119.498154 
	C68.769760,118.906807 68.647385,117.967377 68.186371,117.290718 
	C66.457115,114.752548 43.130730,105.949623 40.093292,106.736626 
	C37.031181,107.530014 34.419037,106.690323 33.832424,103.649689 
	C33.524414,102.053139 35.039410,98.689026 36.055481,98.553444 
	C38.049908,98.287308 40.349068,99.558235 42.362778,100.525032 
	C43.255363,100.953575 43.579601,102.608681 44.469875,102.992531 
	C52.245575,106.345047 59.907185,110.174484 67.994156,112.502266 
	C71.978279,113.649071 76.986649,112.599136 81.175224,111.349197 
	C87.188560,109.554710 92.876373,106.669388 99.063202,104.119080 
z"/>
<path fill="#EB429A" opacity="1.000000" stroke="none" 
	d="
M114.275146,52.780712 
	C112.628609,48.726929 111.321266,44.934311 109.557480,41.367405 
	C108.684341,39.601658 106.683723,38.410839 105.716896,36.669193 
	C104.722427,34.877766 103.363106,32.268059 104.009911,30.871759 
	C104.664482,29.458696 108.003891,28.016953 109.390182,28.562475 
	C110.863731,29.142338 111.764305,31.950943 112.294006,33.950840 
	C112.885971,36.185810 112.301964,38.777466 113.069252,40.912136 
	C115.204590,46.852856 117.621010,52.708046 120.260323,58.443348 
	C121.135941,60.346081 122.804085,62.072628 124.500320,63.368759 
	C127.735474,65.840805 127.761787,69.121941 124.549606,71.596413 
	C122.855530,72.901436 121.183388,74.607864 120.288185,76.504456 
	C117.949097,81.460022 116.075005,86.633461 113.944748,91.690224 
	C113.337440,93.131851 112.487968,94.471466 111.749535,95.857857 
	C111.270752,95.753120 110.791962,95.648384 110.313179,95.543648 
	C110.376541,94.156670 110.126617,92.660614 110.564133,91.403893 
	C111.710686,88.110565 112.920456,84.798264 114.528152,81.714081 
	C119.528069,72.122284 119.485329,62.643448 114.275146,52.780712 
z"/>
<path fill="#FEF7FB" opacity="1.000000" stroke="none" 
	d="
M80.155396,65.891312 
	C78.216805,65.819160 76.748703,65.747063 76.065170,65.713501 
	C74.827866,63.117340 73.861153,61.088959 72.894447,59.060577 
	C72.068428,61.027340 71.242409,62.994106 70.184616,65.512726 
	C65.469986,65.512726 60.089211,65.512726 54.700634,65.512726 
	C54.843258,50.705864 56.668900,48.978210 70.512863,50.465897 
	C71.098686,52.024944 71.683502,53.584995 72.268318,55.145046 
	C72.723984,55.162132 73.179657,55.179218 73.635323,55.196304 
	C74.216843,53.669426 74.798363,52.142544 75.498199,50.304993 
	C76.763565,50.249245 78.233704,50.136337 79.704460,50.127434 
	C89.857727,50.065979 90.119453,50.319893 91.122032,60.816643 
	C91.263260,62.295261 91.430290,63.771416 91.652847,65.891380 
	C87.833771,65.891380 84.229828,65.891380 80.155396,65.891312 
z"/>
<path fill="#FEF8FB" opacity="1.000000" stroke="none" 
	d="
M67.803711,84.875565 
	C55.987122,84.880470 55.988598,84.880318 54.800236,73.266151 
	C54.683201,72.122337 54.533863,70.981827 54.355556,69.466049 
	C59.908169,69.466049 65.259026,69.466049 71.159737,69.466049 
	C71.159737,73.923203 71.316109,78.208572 71.029091,82.464043 
	C70.971008,83.325180 69.236832,84.073265 67.803711,84.875565 
z"/>
<path fill="#FEF8FB" opacity="1.000000" stroke="none" 
	d="
M75.503754,69.567986 
	C80.994629,69.274368 86.118263,69.274368 91.235031,69.274368 
	C91.406021,84.027611 89.337746,86.012863 75.136505,84.468285 
	C75.136505,79.646072 75.136505,74.753838 75.503754,69.567986 
z"/>
<path fill="#FEF3F9" opacity="1.000000" stroke="none" 
	d="
M104.266098,61.727051 
	C104.443779,63.228073 104.546646,64.327019 104.672813,65.674957 
	C101.434479,65.674957 98.511070,65.674957 95.308266,65.674957 
	C94.340446,60.622196 93.388489,55.652218 92.435600,50.677414 
	C100.486473,49.175724 101.958145,50.511627 104.266098,61.727051 
z"/>
<path fill="#FEF3F9" opacity="1.000000" stroke="none" 
	d="
M41.407158,63.347801 
	C42.146107,60.570206 42.597908,58.113323 43.498360,55.833664 
	C45.911419,49.724560 46.517956,49.479675 53.589710,50.605652 
	C52.629349,55.573586 51.669838,60.537117 50.624203,65.946190 
	C47.511864,64.608948 43.606018,68.539497 41.407158,63.347801 
z"/>
<path fill="#FEF3F9" opacity="1.000000" stroke="none" 
	d="
M53.590843,84.035454 
	C46.373310,85.507599 45.744911,85.263573 43.301323,78.692696 
	C42.232849,75.819519 41.736801,72.733467 40.882748,69.356339 
	C44.437672,69.356339 47.356110,69.356339 50.586250,69.356339 
	C51.600929,74.089638 52.624386,78.863899 53.590843,84.035454 
z"/>
<path fill="#FEF3F9" opacity="1.000000" stroke="none" 
	d="
M93.509720,79.278412 
	C94.139908,75.801697 94.619728,72.715462 95.138809,69.376709 
	C98.328331,69.376709 101.385674,69.376709 104.461182,69.376709 
	C103.594200,80.653656 100.554016,87.507324 92.308937,84.368111 
	C92.653946,82.824646 93.006645,81.246773 93.509720,79.278412 
z"/>
<path fill="#FEF4F9" opacity="1.000000" stroke="none" 
	d="
M86.199783,44.991615 
	C85.875725,45.843571 85.386040,46.804535 84.852859,46.829308 
	C81.730934,46.974377 78.598824,46.900513 75.143532,46.900513 
	C75.143532,43.213455 75.143532,39.963257 75.143532,36.354950 
	C80.596382,36.833370 83.275841,40.790962 86.199783,44.991615 
z"/>
<path fill="#FEF4F9" opacity="1.000000" stroke="none" 
	d="
M64.364029,39.274696 
	C66.471870,37.992931 68.311714,36.959698 70.787651,35.569237 
	C70.787651,39.692757 70.787651,43.019489 70.787651,46.630859 
	C66.942223,46.630859 63.240612,46.630859 58.506611,46.630859 
	C60.699429,43.842419 62.397728,41.682823 64.364029,39.274696 
z"/>
<path fill="#FEF4F9" opacity="1.000000" stroke="none" 
	d="
M67.444946,97.810242 
	C64.329369,94.919380 61.557796,92.198631 57.747761,88.458473 
	C63.101013,88.458473 66.772568,88.458473 70.821594,88.458473 
	C70.821594,91.713844 70.821594,94.952591 70.821594,98.622772 
	C69.820663,98.410744 68.804817,98.195549 67.444946,97.810242 
z"/>
<path fill="#FEF4F9" opacity="1.000000" stroke="none" 
	d="
M85.802338,90.648804 
	C83.032852,94.701805 80.172356,98.040894 75.046463,98.842087 
	C75.046463,95.242599 75.046463,91.974136 75.046463,88.108864 
	C78.545883,88.108864 81.828873,88.043999 85.100571,88.206566 
	C85.437492,88.223312 85.706970,89.597534 85.802338,90.648804 
z"/>
<path fill="#FDE8F3" opacity="1.000000" stroke="none" 
	d="
M50.338051,89.701920 
	C51.679169,87.332916 54.602310,87.301392 56.046307,89.534866 
	C57.181534,91.290756 58.054195,93.216400 58.327583,95.875793 
	C55.747166,93.899391 53.166752,91.922981 50.338051,89.701920 
z"/>
<path fill="#FCE6F2" opacity="1.000000" stroke="none" 
	d="
M50.005047,45.762268 
	C52.733562,43.466122 55.292286,41.461735 57.851009,39.457352 
	C55.051556,47.843079 55.051556,47.843079 50.005047,45.762268 
z"/>
<path fill="#FCE6F2" opacity="1.000000" stroke="none" 
	d="
M94.600998,90.719467 
	C92.312088,92.451912 90.275871,93.947151 87.482758,95.998199 
	C89.773071,87.990944 90.220734,87.650764 96.492500,88.588509 
	C95.858131,89.321564 95.355919,89.901917 94.600998,90.719467 
z"/>
</svg>