<svg xmlns="http://www.w3.org/2000/svg" viewBox="0 0 539.06 156.68"><defs><style>.cls-1{fill:#0f62a7;stroke:#0f62a7;stroke-miterlimit:10;stroke-width:0.22px;}</style></defs><g id="Capa_2" data-name="Capa 2"><g id="Capa_1-2" data-name="Capa 1"><path class="cls-1" d="M400,133.07l3.41-19.52h4L404,133.07Z"/><path class="cls-1" d="M410.25,118.93h3.62l-.31,1.84A9.54,9.54,0,0,1,416,119.1a6.1,6.1,0,0,1,2.47-.5,3.82,3.82,0,0,1,2.78,1,3.67,3.67,0,0,1,1.1,2.65,16.74,16.74,0,0,1-.34,2.82l-1.39,8h-3.82l1.4-8a16.51,16.51,0,0,0,.3-2.14,1.62,1.62,0,0,0-.47-1.15,1.72,1.72,0,0,0-1.22-.42,3.25,3.25,0,0,0-1.84.7,4.65,4.65,0,0,0-1.55,1.87,14.68,14.68,0,0,0-.84,3.37l-1,5.8h-3.82Z"/><path class="cls-1" d="M425,121.77l.49-2.84h1.86l.39-2.26L432,114l-.86,4.9h2.33l-.49,2.84h-2.34l-1,5.92a15.67,15.67,0,0,0-.27,1.84.92.92,0,0,0,.3.69,1.62,1.62,0,0,0,1,.24q.25,0,1.26-.09l-.5,2.84a10.25,10.25,0,0,1-2,.2,4.63,4.63,0,0,1-3-.78,2.78,2.78,0,0,1-1-2.17,21.67,21.67,0,0,1,.39-3l1-5.68Z"/><path class="cls-1" d="M447,127.19h-9.59v.34a3.33,3.33,0,0,0,.88,2.28,2.67,2.67,0,0,0,2,.87,3.14,3.14,0,0,0,2.9-2l3.44.57a6.6,6.6,0,0,1-6.28,4.13,6.4,6.4,0,0,1-4.69-1.81,6.71,6.71,0,0,1-1.95-4.77,8.45,8.45,0,0,1,1.43-5.17,7,7,0,0,1,6.17-3.06,5.61,5.61,0,0,1,4.18,1.6,6.47,6.47,0,0,1,1.69,4.5A10.8,10.8,0,0,1,447,127.19Zm-3.3-2.33v-.39a3.56,3.56,0,0,0-.79-2.36,2.52,2.52,0,0,0-1.92-.78,2.9,2.9,0,0,0-2.09.89,4.54,4.54,0,0,0-1.18,2.64Z"/><path class="cls-1" d="M450.9,118.93h3.56l-.47,2.74q1.89-3.08,4.22-3.07A4.61,4.61,0,0,1,460,119l-1.35,3.13a3.4,3.4,0,0,0-1.11-.19,3.27,3.27,0,0,0-2,.75,4.78,4.78,0,0,0-1.53,2,19.59,19.59,0,0,0-1,3.95l-.78,4.43h-3.82Z"/><path class="cls-1" d="M461.78,118.93h3.62l-.31,1.84a9.38,9.38,0,0,1,2.48-1.67,6,6,0,0,1,2.46-.5,3.83,3.83,0,0,1,2.79,1,3.71,3.71,0,0,1,1.1,2.65,17.11,17.11,0,0,1-.35,2.82l-1.39,8h-3.82l1.4-8a16.51,16.51,0,0,0,.3-2.14,1.54,1.54,0,0,0-.47-1.15,1.71,1.71,0,0,0-1.22-.42,3.27,3.27,0,0,0-1.84.7A4.73,4.73,0,0,0,465,123.9a15.86,15.86,0,0,0-.84,3.37l-1,5.8h-3.82Z"/><path class="cls-1" d="M489.48,127.19h-9.59v.34a3.33,3.33,0,0,0,.88,2.28,2.69,2.69,0,0,0,2,.87,3.14,3.14,0,0,0,2.9-2l3.44.57a6.59,6.59,0,0,1-6.27,4.13,6.42,6.42,0,0,1-4.7-1.81,6.71,6.71,0,0,1-1.95-4.77,8.45,8.45,0,0,1,1.43-5.17,7,7,0,0,1,6.17-3.06,5.6,5.6,0,0,1,4.18,1.6,6.47,6.47,0,0,1,1.69,4.5A10.8,10.8,0,0,1,489.48,127.19Zm-3.3-2.33v-.39a3.56,3.56,0,0,0-.79-2.36,2.52,2.52,0,0,0-1.92-.78,2.9,2.9,0,0,0-2.09.89,4.54,4.54,0,0,0-1.18,2.64Z"/><path class="cls-1" d="M491.65,121.77l.49-2.84H494l.39-2.26,4.29-2.64-.86,4.9h2.34l-.49,2.84h-2.35l-1,5.92a15.67,15.67,0,0,0-.27,1.84.92.92,0,0,0,.3.69,1.62,1.62,0,0,0,1,.24q.26,0,1.26-.09l-.5,2.84a10.23,10.23,0,0,1-2,.2,4.63,4.63,0,0,1-3-.78,2.79,2.79,0,0,1-1-2.17,21.67,21.67,0,0,1,.39-3l1-5.68Z"/><path class="cls-1" d="M79.73,71.93H95s8.52.44,12.94,10.85c0,0,4.74,11.15-5.38,24,0,0-7.36,8.8-19.36,9.11H50a12.29,12.29,0,0,0-11.71,10,8.37,8.37,0,0,0,8.49,10.06H81.59s14.93-.59,26.26-9.54c0,0,18.18-12.32,20.79-33,0,0,6.08-22.16-15.06-37,0,0-8.43-5-15.59-4.84H80.92A12.31,12.31,0,0,0,69.19,61.81a8.41,8.41,0,0,0,8.5,10.11Z"/><path class="cls-1" d="M77.11,84.78H61.83s-8.52-.44-12.95-10.85c0,0-4.74-11.15,5.38-24.05,0,0,7.37-8.81,19.37-9.11h33.21a12.28,12.28,0,0,0,11.7-10.06,8.36,8.36,0,0,0-8.48-10H75.25S60.31,21.25,49,30.2c0,0-18.18,12.33-20.79,33,0,0-6.08,22.17,15.05,37,0,0,8.44,5,15.6,4.84H75.92A12.32,12.32,0,0,0,87.64,94.9a8.4,8.4,0,0,0-8.5-10.11Z"/><path class="cls-1" d="M228.62,38.2H196.26s-10,.25-14.23,11.61l-1.89,10.56s-1.59,9.75,11.21,12.72l17.89,0s6.82-.48,6.06,4.69l-.89,4.84s-.52,5.4-6.95,5.67l-29.77,0-1.78,10.23,30.91,0s16.08,2.17,19.51-17.71c0,0,4.44-18.26-11.46-18.26l-18.17,0a5.08,5.08,0,0,1-5-5.3s.1-8.06,7.52-8.86l27.84,0Z"/><path class="cls-1" d="M279.43,38.22l-21,0c-18.25-.42-21.06,14.41-21.06,14.41L225.7,119.46h11.22l3.62-20.9,24,0c20.83,0,22.05-15.31,22.05-15.31l5.44-31.64C292.87,38,279.43,38.22,279.43,38.22Zm.4,20.63-4,22.22s-.59,7.2-10.4,7.2l-19.86,0s-3.18.8-2.38-3.79l4.83-28s1-8.21,11-8h14.3S282.82,48.23,279.83,58.85Z"/><path class="cls-1" d="M427.81,98.7h21c18.24.42,21.06-14.39,21.06-14.39l11.65-66.88H470.34l-3.42,20.92-24.24,0c-20.83,0-22,15.31-22,15.31l-5.42,31.64C414.39,98.9,427.81,98.7,427.81,98.7Zm-.38-20.62,4-22.23s.62-7.22,10.43-7.21l19.82,0s3.19-.8,2.4,3.81l-4.83,28s-1,8.21-10.95,8H434S424.42,88.69,427.43,78.08Z"/><path class="cls-1" d="M401.53,38.3l-20.83,0s-17.63-1.41-20.83,15.61l-5,29.85s-3,14.82,14,14.93l36.65,0,1.81-10.27-35.65,0s-6.81-.47-5-8.68l1-6.4,42.45,0,3.24-20.62S416.15,39.5,401.53,38.3ZM369.16,64.53l1.52-9.22s.81-7.61,15.42-6.8h9.21s7-.59,6.6,6.63L401,60.92h0a4.08,4.08,0,0,1-4.29,3.62Z"/><path class="cls-1" d="M340.72,38.3l-20.83,0s-17.63-1.41-20.83,15.61l-5,29.85s-3,14.82,14,14.93l36.65,0,1.81-10.27-35.65,0s-6.81-.47-5-8.68l1-6.4,42.46,0,3.23-20.62S355.35,39.5,340.72,38.3ZM308.36,64.53l1.51-9.22s.82-7.61,15.42-6.8h9.21s7-.59,6.6,6.63l-.91,5.78h0a4.08,4.08,0,0,1-4.29,3.62Z"/><path class="cls-1" d="M485.19,38.17l10.72,0L488.63,79.6s-3,8.76,7.5,8.75l19.76-.06s2.82,1.2,4-5.29l7.88-44.94,11.13,0-18.33,102H509.86l6.37-36.85s1.57-4.61-2.74-4.6l-20.94.06S472.91,99.8,477,82Z"/><path class="cls-1" d="M119.81,156.57H36.87A36.8,36.8,0,0,1,.11,119.81V36.87A36.8,36.8,0,0,1,36.87.11h82.94a36.8,36.8,0,0,1,36.76,36.76v82.94A36.8,36.8,0,0,1,119.81,156.57ZM36.87,6.61A30.3,30.3,0,0,0,6.61,36.87v82.94a30.3,30.3,0,0,0,30.26,30.26h82.94a30.3,30.3,0,0,0,30.26-30.26V36.87A30.3,30.3,0,0,0,119.81,6.61Z"/></g></g></svg>