<svg version="1.1" id="Layer_1" xmlns="http://www.w3.org/2000/svg" xmlns:xlink="http://www.w3.org/1999/xlink" x="0px" y="0px"
	 width="100%" viewBox="0 0 2084 2085" enable-background="new 0 0 2084 2085" xml:space="preserve">

<path fill="#000" opacity="1.000000" stroke="none" 
	d="
M925.999756,1267.302002 
	C907.000854,1267.301880 888.986389,1266.820679 871.006470,1267.403564 
	C835.115906,1268.567017 800.958557,1260.852539 767.732849,1248.196289 
	C743.497070,1238.964600 719.296082,1229.338257 698.095398,1214.097290 
	C650.373108,1179.790161 611.566284,1137.352295 584.461853,1084.936523 
	C566.159851,1049.543335 554.799805,1011.864502 549.551941,972.276062 
	C546.570984,949.788269 545.358398,927.230713 546.572021,904.684082 
	C547.693542,883.848755 552.077881,863.337891 555.256226,842.704895 
	C561.066284,804.987488 571.415283,768.773071 586.787903,734.006775 
	C609.163696,683.402222 640.002747,638.304504 676.908325,597.169189 
	C708.412903,562.053955 743.824097,531.443970 782.638123,504.820618 
	C812.935059,484.039307 845.842651,468.159973 880.407715,455.718323 
	C924.397827,439.884125 969.662476,429.814056 1016.229553,425.633270 
	C1019.204895,425.366150 1022.207581,425.311371 1025.197510,425.310974 
	C1141.190063,425.295441 1257.182861,425.394501 1373.175171,425.241760 
	C1410.344482,425.192810 1446.691528,448.442230 1455.447998,490.213318 
	C1462.025635,521.591003 1453.660156,550.136047 1435.048584,575.744446 
	C1415.602173,602.501343 1389.278076,618.681091 1356.924194,625.213013 
	C1352.308472,626.144836 1347.657471,626.099243 1342.991699,626.098877 
	C1234.998535,626.090149 1127.005493,626.060852 1019.012390,626.104431 
	C959.166504,626.128540 905.557007,644.863159 857.238098,679.836914 
	C801.579346,720.123230 770.726379,775.865723 755.713745,841.561157 
	C751.786682,858.746033 749.847229,876.257690 750.407837,893.871460 
	C752.445679,957.904175 780.056030,1008.178589 833.438171,1043.506104 
	C854.520569,1057.458130 878.015564,1064.696167 904.065063,1064.317383 
	C956.717224,1063.551880 1009.388916,1063.951294 1062.051392,1064.164551 
	C1080.304443,1064.238525 1097.650024,1068.336914 1112.998657,1078.859009 
	C1133.327881,1092.795532 1144.724365,1112.099487 1148.383423,1136.437622 
	C1157.671143,1198.216309 1104.271606,1259.485474 1043.873291,1266.199585 
	C1030.889282,1267.643066 1017.952209,1267.170166 1004.993530,1267.252808 
	C978.996521,1267.418457 952.997803,1267.302002 925.999756,1267.302002 
z"/>
<path fill="#000" opacity="1.000000" stroke="none" 
	d="
M1540.736572,1224.697754 
	C1526.784546,1267.466797 1507.143677,1306.513428 1482.302979,1343.030273 
	C1464.491211,1369.214355 1444.639038,1393.665894 1422.729980,1416.553711 
	C1379.350952,1461.870361 1330.894653,1500.424316 1274.176880,1527.710327 
	C1231.126343,1548.421265 1185.656494,1561.843628 1138.605347,1570.196655 
	C1112.944214,1574.752075 1087.206543,1576.274292 1061.182861,1576.207642 
	C953.520996,1575.931885 845.857605,1575.920776 738.195618,1576.164795 
	C685.045654,1576.285278 646.507141,1531.817505 654.800659,1476.635376 
	C662.335205,1426.502563 704.909119,1385.758911 751.422607,1376.876953 
	C757.662720,1375.685303 763.925598,1375.278809 770.260498,1375.280273 
	C878.256348,1375.304688 986.252197,1375.300537 1094.248047,1375.296387 
	C1130.286255,1375.294922 1164.839722,1368.065186 1197.920410,1353.821655 
	C1231.592773,1339.323242 1261.420654,1318.907715 1287.505127,1293.346069 
	C1303.004883,1278.157104 1314.501221,1259.639771 1325.106445,1240.792603 
	C1340.354614,1213.694214 1351.388062,1184.993652 1356.749512,1154.184204 
	C1362.769165,1119.592896 1363.609253,1084.763550 1351.443726,1051.801147 
	C1330.626099,995.395752 1293.246582,954.807007 1232.856689,939.267700 
	C1226.661987,937.673706 1220.415283,937.283020 1214.072998,937.286194 
	C1158.741821,937.313843 1103.409668,937.484436 1048.079834,937.210449 
	C1026.526978,937.103699 1006.817505,930.962463 990.224060,916.447876 
	C969.481506,898.303955 960.806091,874.918579 961.851135,848.068726 
	C964.166016,788.597473 1015.306396,740.245056 1069.432495,735.136658 
	C1075.742065,734.541138 1082.005371,734.097778 1088.317505,734.096191 
	C1137.648926,734.083740 1186.995117,734.835022 1236.307617,733.868408 
	C1280.859131,732.995056 1322.326294,744.216309 1363.034668,760.840698 
	C1461.169922,800.916931 1540.603027,906.489441 1558.473267,1008.638611 
	C1564.484741,1043.001099 1566.696777,1077.508545 1563.169922,1111.854858 
	C1559.416138,1148.410522 1553.201294,1184.834473 1542.034546,1220.113892 
	C1541.635376,1221.374878 1541.389160,1222.684204 1540.736572,1224.697754 
z"/>
<path fill="#000" opacity="1.000000" stroke="none" 
	d="
M876.000000,244.080978 
	C1120.982056,244.080978 1364.964111,244.060989 1608.946167,244.102463 
	C1645.634277,244.108704 1680.840576,251.787003 1714.650879,265.790710 
	C1781.536743,293.493713 1831.464966,340.030396 1865.167358,403.751892 
	C1882.216675,435.987122 1892.334106,470.594513 1896.453369,507.005341 
	C1900.377930,541.696167 1897.274780,575.781006 1890.910034,609.913940 
	C1884.102051,646.424683 1878.442505,683.148987 1872.211182,719.768127 
	C1864.538818,764.855530 1856.781616,809.928467 1849.083740,855.011536 
	C1842.776978,891.947083 1836.550171,928.896423 1830.203491,965.825134 
	C1820.378784,1022.990540 1810.399048,1080.129395 1800.641479,1137.306152 
	C1792.219116,1186.659058 1784.105347,1236.064697 1775.687988,1285.418457 
	C1768.110718,1329.846191 1760.238770,1374.223755 1752.623047,1418.645020 
	C1746.403076,1454.924194 1740.185181,1491.205688 1734.292847,1527.538940 
	C1723.330566,1595.135864 1693.751831,1653.102905 1643.903931,1700.083374 
	C1600.408081,1741.077148 1548.727905,1766.283081 1489.643066,1776.043335 
	C1469.242554,1779.413208 1448.682617,1780.324097 1428.049072,1780.070435 
	C1426.159180,1780.047241 1424.100586,1780.692261 1422.398682,1779.216797 
	C1421.399170,1776.562988 1423.281250,1774.771240 1424.370117,1772.823120 
	C1432.802246,1757.736694 1441.540283,1742.813965 1449.623901,1727.544312 
	C1452.035034,1722.989990 1455.177124,1721.554810 1459.742920,1721.261108 
	C1483.120850,1719.757935 1505.672729,1714.540771 1527.457886,1705.970581 
	C1577.064575,1686.455688 1615.924927,1654.084961 1644.169312,1608.836060 
	C1664.257812,1576.653076 1674.153320,1541.166870 1679.973755,1504.062012 
	C1686.447144,1462.795410 1693.852661,1421.674683 1700.871216,1380.493652 
	C1706.605835,1346.846069 1712.359863,1313.201904 1718.120117,1279.558594 
	C1725.730225,1235.110718 1733.380005,1190.669922 1740.965088,1146.217773 
	C1747.263306,1109.306519 1753.430054,1072.372681 1759.766602,1035.468018 
	C1769.585327,978.283936 1779.556519,921.125916 1789.351562,863.937683 
	C1795.622070,827.327698 1801.599976,790.667603 1807.873047,754.058105 
	C1817.669678,696.884888 1828.102051,639.815430 1837.329468,582.551270 
	C1845.113525,534.244873 1840.161987,487.169434 1819.558716,442.287720 
	C1796.433960,391.913574 1760.384277,353.599243 1711.377930,327.780792 
	C1679.425903,310.947144 1645.135254,301.490662 1609.023315,301.462311 
	C1287.380493,301.209747 965.736938,301.035858 644.094849,301.577881 
	C587.510742,301.673248 537.513000,322.406494 494.783081,359.543823 
	C449.260071,399.108734 423.567230,449.499969 413.960541,508.816742 
	C404.632050,566.415771 394.285522,623.849609 384.458527,681.368347 
	C376.364197,728.745483 368.425964,776.149292 360.327881,823.525818 
	C350.440002,881.373047 340.381439,939.191101 330.539062,997.046021 
	C322.144073,1046.392700 314.069000,1095.793945 305.638458,1145.134521 
	C294.693756,1209.189575 283.515900,1273.204590 272.480103,1337.244141 
	C266.399567,1372.529053 259.793549,1407.737061 254.498337,1443.140503 
	C243.517899,1516.554932 261.281250,1582.619019 309.493683,1639.140625 
	C352.492950,1689.550659 408.241486,1716.510986 474.288330,1722.028076 
	C477.267853,1722.276978 480.285217,1722.079956 483.284943,1722.079956 
	C661.938477,1722.080933 840.591980,1722.080811 1019.245483,1722.080811 
	C1023.203857,1722.080811 1027.162231,1722.080811 1031.150757,1722.080811 
	C1033.073486,1725.370117 1032.197266,1728.329224 1031.717529,1731.147095 
	C1029.214722,1745.848511 1026.433838,1760.504639 1024.130371,1775.236084 
	C1023.527283,1779.092773 1021.944641,1780.359985 1018.353210,1780.125610 
	C1016.029968,1779.973877 1013.688721,1780.100098 1011.355530,1780.100098 
	C837.701660,1780.100220 664.047119,1780.362061 490.394135,1779.977661 
	C415.631256,1779.812134 349.322906,1755.133179 293.501434,1705.310913 
	C241.123383,1658.562012 208.953445,1600.031494 197.613419,1530.371582 
	C191.898560,1495.266113 192.863556,1460.391724 199.131653,1425.437744 
	C206.446564,1384.646118 213.064468,1343.729736 220.055161,1302.879517 
	C227.713379,1258.128662 235.495239,1213.398926 243.142105,1168.645996 
	C249.454422,1131.703613 255.615936,1094.735596 261.903412,1057.788940 
	C269.520294,1013.030518 277.206604,968.283997 284.849152,923.530029 
	C291.156433,886.594971 297.391541,849.647522 303.751984,812.721619 
	C313.654205,755.233948 323.732910,697.776611 333.553711,640.275146 
	C341.926819,591.249878 349.942291,542.163574 358.296814,493.135101 
	C368.263641,434.644806 392.546082,383.090302 432.858856,339.211273 
	C477.117126,291.037689 531.608093,261.336304 595.503601,248.687012 
	C610.787720,245.661240 626.320007,243.994751 642.020874,244.021255 
	C719.680359,244.152390 797.340271,244.080978 876.000000,244.080978 
z"/>
<path fill="#000" opacity="1.000000" stroke="none" 
	d="
M1157.967773,1714.011475 
	C1156.883911,1708.284058 1156.008057,1703.392212 1155.127808,1698.501343 
	C1154.028809,1692.395752 1154.024902,1692.190063 1159.969482,1692.124390 
	C1172.633301,1691.984497 1185.301758,1691.956299 1197.964478,1692.139526 
	C1203.225464,1692.215576 1209.382568,1690.072144 1213.525269,1693.191406 
	C1217.516846,1696.196655 1215.951294,1702.524658 1216.710327,1707.390015 
	C1221.818115,1740.130981 1226.759277,1772.897705 1231.809814,1805.647583 
	C1233.679688,1817.771606 1235.758545,1829.863770 1237.600708,1841.991821 
	C1237.960815,1844.362549 1237.768188,1846.749146 1240.997559,1847.079468 
	C1243.630249,1847.348511 1245.462891,1846.364624 1246.572754,1843.902466 
	C1247.392212,1842.084839 1248.423218,1840.363770 1249.321899,1838.580566 
	C1267.592163,1802.330200 1286.016357,1766.155640 1303.963623,1729.745972 
	C1306.919556,1723.749390 1310.244385,1721.831055 1316.854736,1721.905518 
	C1350.513916,1722.284058 1384.179688,1722.067749 1417.843140,1722.113159 
	C1419.730103,1722.115723 1421.783325,1721.482788 1423.856079,1723.179321 
	C1422.924927,1728.716797 1419.134644,1733.058105 1416.528809,1737.869751 
	C1409.882935,1750.141479 1402.680664,1762.111816 1396.044434,1774.388428 
	C1393.997070,1778.175781 1391.497192,1779.449707 1387.349976,1779.389893 
	C1373.687500,1779.192383 1360.015381,1779.527710 1346.357544,1779.206177 
	C1341.365723,1779.088745 1338.651245,1780.754883 1336.288330,1785.189697 
	C1315.971436,1823.321167 1295.411621,1861.323364 1274.910034,1899.356445 
	C1271.925537,1904.893188 1270.271118,1912.388306 1265.165039,1915.164307 
	C1260.492920,1917.703979 1253.491577,1916.025269 1247.515625,1916.083740 
	C1240.183594,1916.155640 1232.850098,1916.150146 1225.517944,1916.091431 
	C1204.553589,1915.923462 1194.312256,1907.488770 1190.428589,1886.945068 
	C1182.911743,1847.183350 1175.499390,1807.401855 1168.047607,1767.627930 
	C1164.751587,1750.035278 1161.464722,1732.441162 1157.967773,1714.011475 
z"/>
<path fill="#000" opacity="1.000000" stroke="none" 
	d="
M1026.871460,1905.886719 
	C1023.786682,1895.415405 1027.030151,1886.016968 1028.672852,1876.641846 
	C1039.480225,1814.964844 1050.726685,1753.364746 1061.466187,1691.676147 
	C1063.036011,1682.658447 1065.564331,1673.687744 1065.650391,1664.511963 
	C1062.162109,1662.515869 1058.763428,1663.382568 1055.521606,1663.364624 
	C1038.198120,1663.268799 1020.873901,1663.344482 1003.550049,1663.309448 
	C994.167297,1663.290405 994.134705,1663.238770 995.634705,1654.287476 
	C997.112305,1645.469116 998.563049,1636.644531 1000.212952,1627.857666 
	C1002.006836,1618.303589 1005.511475,1615.076294 1014.960876,1612.925903 
	C1017.946960,1612.246338 1020.870728,1612.085938 1023.856079,1612.085449 
	C1080.825073,1612.075684 1137.794189,1612.069458 1194.763184,1612.088013 
	C1203.143188,1612.090698 1203.140869,1612.151001 1204.341064,1620.406006 
	C1206.101318,1632.513550 1207.911743,1644.614136 1209.579712,1656.734253 
	C1209.839600,1658.623047 1210.267822,1660.675293 1208.681641,1663.319458 
	C1200.826904,1663.319458 1192.547729,1663.319458 1184.268433,1663.319580 
	C1168.277100,1663.319580 1152.285889,1663.298218 1136.294556,1663.327881 
	C1127.336426,1663.344482 1127.267090,1663.370117 1125.745728,1671.952393 
	C1115.795654,1728.083618 1105.878296,1784.220703 1095.949463,1840.355713 
	C1091.908569,1863.201904 1087.734985,1886.026001 1083.924683,1908.910645 
	C1083.079468,1913.987061 1081.585449,1916.510376 1075.815308,1916.234741 
	C1065.843628,1915.758179 1055.832153,1916.045898 1045.838135,1916.119995 
	C1037.958252,1916.178345 1031.484253,1913.663696 1026.871460,1905.886719 
z"/>
</svg>