<?xml version="1.0" encoding="utf-8"?>
<!-- Generator: Adobe Illustrator 25.2.3, SVG Export Plug-In . SVG Version: 6.00 Build 0)  -->
<svg version="1.1" id="Capa_1" xmlns="http://www.w3.org/2000/svg" xmlns:xlink="http://www.w3.org/1999/xlink" x="0px" y="0px"
	 viewBox="0 0 50 50" style="enable-background:new 0 0 50 50;" xml:space="preserve">
<style type="text/css">
	.st0{fill:#fff;}
</style>
<g>
	<g>
		<path class="st0" d="M25.65,23.06l4.52,0c0,0,2.52,0.13,3.83,3.21c0,0,1.4,3.3-1.59,7.12c0,0-2.18,2.61-5.73,2.7l-9.31,0l-0.52,0
			c-1.65,0-3.2,1.33-3.47,2.98c-0.26,1.64,0.86,2.98,2.51,2.98l0.56,0l9.75,0c0,0,4.42-0.17,7.77-2.83c0,0,5.38-3.65,6.16-9.77
			c0,0,1.8-6.56-4.46-10.95c0,0-2.5-1.48-4.62-1.43l-5.09,0l0.03,0c-1.65,0-3.21,1.34-3.47,2.99c-0.26,1.65,0.86,2.99,2.52,2.99
			L25.65,23.06z"/>
		<path class="st0" d="M24.88,26.87l-4.52,0c0,0-2.52-0.13-3.83-3.21c0,0-1.4-3.3,1.59-7.12c0,0,2.18-2.61,5.73-2.7l9.31,0l0.52,0
			c1.65,0,3.2-1.33,3.47-2.98c0.26-1.64-0.86-2.98-2.51-2.98l-0.56,0l-9.75,0c0,0-4.42,0.17-7.77,2.83c0,0-5.38,3.65-6.16,9.77
			c0,0-1.8,6.56,4.46,10.95c0,0,2.5,1.48,4.62,1.43l5.09,0l-0.03,0c1.65,0,3.21-1.34,3.47-2.99c0.26-1.65-0.86-2.99-2.52-2.99
			L24.88,26.87z"/>
	</g>
</g>
<path class="st0" d="M37.52,48.12H12.96c-6,0-10.88-4.88-10.88-10.88V12.69c0-6,4.88-10.88,10.88-10.88h24.55
	c6,0,10.88,4.88,10.88,10.88v24.56C48.4,43.24,43.52,48.12,37.52,48.12z M12.96,3.73c-4.94,0-8.96,4.02-8.96,8.96v24.56
	c0,4.94,4.02,8.96,8.96,8.96h24.55c4.94,0,8.96-4.02,8.96-8.96V12.69c0-4.94-4.02-8.96-8.96-8.96H12.96z"/>
</svg>
